<?xml version="1.0" encoding="utf-8"?>
<!-- Generator: Adobe Illustrator 25.2.3, SVG Export Plug-In . SVG Version: 6.00 Build 0)  -->
<svg version="1.1" id="圖層_1" xmlns="http://www.w3.org/2000/svg" xmlns:xlink="http://www.w3.org/1999/xlink" x="0px" y="0px"
	 viewBox="0 0 731.5 313.1" style="enable-background:new 0 0 731.5 313.1;" xml:space="preserve">
<style type="text/css">
	.st0{fill:#FFFFFF;stroke:#000000;stroke-width:5;stroke-linecap:round;stroke-linejoin:round;stroke-miterlimit:10;}
	.st1{fill:#040000;}
	.st2{fill:#FFFFFF;}
	.st3{fill:#863721;}
	.st4{fill:#CC2C42;}
	.st5{fill:#494949;}
	.st6{fill:#E6C896;}
	.st7{fill:#BC9D6C;}
	.st8{fill:#4A77BB;}
	.st9{fill:#E1592B;}
</style>
<path class="st0" d="M662.4,10.8H284.7c-32.7,0-59.5,26.8-59.5,59.5v24.9c0,15.1,5.8,28.9,15.2,39.5l-15.2,25.1l37.4-9.4
	c6.9,2.8,14.3,4.3,22.1,4.3h377.7c32.7,0,59.5-26.8,59.5-59.5V70.3C721.9,37.6,695.1,10.8,662.4,10.8z"/>
<g>
	<path d="M365.4,114.9h-7v-2.5h-13.5v2.5h-7V82.6h27.5V114.9z M358.4,94.4v-5.3h-13.5v5.3H358.4z M358.4,106v-5.3h-13.5v5.3H358.4z
		 M390.3,51.9v26.7h-44.6V51.9H390.3z M382.9,62.4v-3.7H353v3.7H382.9z M382.9,68.7H353v3.6h29.9V68.7z M398.1,114.9h-7v-2.5h-13.4
		v2.5h-7V82.6h27.4V114.9z M391.1,94.4v-5.2h-13.4v5.2H391.1z M391.1,106v-5.3h-13.4v5.3H391.1z"/>
	<path d="M413.2,64.4c-0.2,7-1,13.6-2.2,19.9l-5.6-1.5c1.4-6,2.2-12.2,2.4-18.8L413.2,64.4z M428.6,67.8c4.6-4.6,8.1-10.3,10.4-17.2
		l6.5,2.7c-2.1,5.3-4.5,9.9-7.2,13.7h22.1c-3.1-5-6.2-9.7-9.5-13.8l6.1-2.8c5.1,6.2,9.6,12.9,13.4,20.2l-6.2,3.2l-1.2-2.2v17.9h-5.3
		v16.7c0,0.8,0.4,1.3,1.4,1.3h2.6c0.6,0,1-0.3,1.2-1c0.3-0.8,0.5-3.1,0.6-6.9l6.5,2.1c-0.4,6-1.2,9.5-2.2,10.6
		c-1.1,1-2.7,1.6-4.8,1.6h-6c-4.1,0-6.1-2.2-6.1-6.4V89.4h-4.3c-1.1,11.8-6.7,20.4-16.7,25.7l-4-6.4c8.2-3.8,12.8-10.2,13.9-19.3
		h-5.3V71.6c-1,1-2,2-2.9,2.8L430,73l1,4.7l-5.3,1.3c-1-5.2-2.2-10.1-3.7-14.8v50.4h-6.9V50.4h6.9v13.3l4.8-1.5
		C427.5,64,428.1,65.9,428.6,67.8z M456.3,73.4h-14.9V83h14.9V73.4z"/>
	<path d="M512.4,61.7h21.5v5.5c-7.9,15.1-19.3,26.7-34.2,34.7c2.8,2.5,6.2,3.9,10.1,4.2c3.3,0.1,8,0.2,14.1,0.2
		c3.7,0,8.8-0.2,15.4-0.5l-1.8,7.2H525c-6.2,0-10.7-0.1-13.4-0.1c-7.7-0.1-13.4-2.2-17.4-6.4c-1.5-1.6-2.7-2.4-3.7-2.4
		c-1.3,0-3.9,3.6-7.6,10.7l-5.8-4.1c4.8-9.5,9.2-14.2,13.6-14.2c0.9,0,1.8,0.1,2.6,0.6c0.2,0.1,0.4,0.1,0.6,0.3
		c13.4-7.1,23.8-16.7,31.1-28.5h-43.4v-7.1h22.8c-1.8-3.7-3.8-7.2-6.2-10.4l8.5-1.4C508.5,53.3,510.5,57.3,512.4,61.7z"/>
	<path d="M566.3,59c0.3-2.9,0.7-5.8,1-8.8h7.4c-0.3,3.1-0.6,6-1,8.8h35.4v7.1h-36.5c-0.5,2.9-1,5.7-1.5,8.4h31.4v6.4
		c-2.5,7.3-6.6,13.5-12.1,18.8c5.5,3.7,12,6.5,19.7,8.5l-3.7,6.7c-8.8-2.5-16-5.9-21.8-10.3c-5.9,4.3-13,7.8-21.2,10.6l-3.8-7
		c7.8-2.1,14.4-4.9,19.7-8.4c-4.8-4.9-8.2-10.7-10.2-17.4c-0.7,2.5-1.5,4.8-2.2,6.9c-3.7,9.4-9.2,17.7-16.5,25.1l-4.7-6.1
		c6.4-6.6,11.3-14,14.6-22.3c2-5.5,3.6-12.1,5-20h-17.4V59H566.3z M585,95.4c4.5-4.1,7.8-8.8,9.9-14.1h-19.3
		C577.7,86.8,580.8,91.5,585,95.4z"/>
</g>
<g>
	<path class="st1" d="M153.5,259c-3.3-2-7.3-0.6-10.5,0.8c-5,2.2-9.7,4.8-14.2,7.7c-5.2,3.4-10.3,7-15.6,10.2
		c-4.9,2.9-11.2,6.6-17.1,5.6c-3.1-0.5-6.1-2.7-8.9-3.9c-3.1-1.3-6.3-2.4-9.6-2.8c-6.3-0.9-12,1.4-17.9,3.1
		c-5.2,1.6-10.6,1.7-15.7,3.7c-0.3,0.1-0.6,0.3-0.9,0.4c-0.7-0.5-1.5-0.7-2.5-0.5c-6.4,1.2-15.2,13.1-6.6,17.3
		c5.4,2.7,13.2-2.1,18.3-3.9c4.2-1.5,8.4-3,12.6-4.5c3.2-1.2,8-4.1,11.6-3.7c7.1,0.8,16.5,3.4,20.7,9.7c1,1.6,1.8,3.3,3,4.7
		c6.1,7.1,13.4-2.8,16.5-7.3c2.9-4.2,8.1-6.2,12.5-8.3c5.9-2.9,12.1-5.5,17.8-8.8c3.7-2.1,7.5-5,9.2-9
		C157.5,265.9,157,261.2,153.5,259z"/>
	<g id="XMLID_27_">
		<g>
			<g id="XMLID_28_">
				<g>
					<path class="st2" d="M75.4,277.6c-1-2.8-0.4-5,1.5-6.4l0,0c3.2,0,6,2.1,8.4,4.2c7.4,6.3,14.9,13.4,17,22.9l0.2,0.6
						c-2.5,0.8-5.7-1-8.1-2.7c-3.9-2.9-7.6-5.9-11.3-9c-1.8-1.5-3.6-3.1-5.2-4.9C76.9,280.7,76,279.2,75.4,277.6z"/>
					<path class="st3" d="M165.8,207.7c-0.7-2.1-2.5-4.4-4.2-4.5c1.4-0.8,2.7-1.8,3.4-3.2c0.3-0.6,0.5-1.2,0.6-1.9h0.3
						c1-0.6,2.4-0.1,3.2,0.8c0.8,0.9,1.1,2.1,1.3,3.2c0.2,1.2,0.5,2.3,0.5,3.5c0.1,0.8,0,1.6-0.2,2.4c-1.4,6.6-4.9,2.4-4.9,2.4
						C166.2,209.7,166.1,208.8,165.8,207.7z"/>
					<path class="st4" d="M143.4,126.6L143.4,126.6c-0.5-3.3-0.9-6.6-0.3-9.8c0.6-3.2,2.5-6.4,5.5-7.7c0.6-0.3,1.1-0.4,1.7-0.5
						c4.2-0.7,8.6,2.2,10.7,6c2.4,4.4,2.4,9.6,2.5,14.6c0.1,20.6,0.2,41.2,0.3,61.8l-0.1,0.8c-0.3,0-0.5,0-0.8,0
						c-5,0.1-9.9,0.3-14.9,0.4l-1.9,0c-0.1-4.4-0.1-8.7-0.2-13.1c-0.1-3.6-0.2-7.2-0.3-10.8C145.1,154.5,144.4,140.5,143.4,126.6z"
						/>
					<path class="st5" d="M115.8,39.1c1.4-10.3,14.6-12,23-10.6c8.4,1.3,7.9,12.1,16.3,10.8c15.5-2.4,11.3,43.4-1.8,58.2
						c-3.9-3.1-6.8-7.4-8.1-12.3l0.3-0.1c2-1.4,3.7-3.1,5.2-4.9c1.3-1.6,2.4-3.8,1.5-5.6c-1.4-2.8-6-1.7-7.7,0.9l-0.6,0
						c-0.3-7.7,0-12.9,1.3-20.9c0,0-10.5-0.2-16.6-3.7c-5-2.9-9.6-6.8-12.8-11.7C115.9,39.3,115.8,39.2,115.8,39.1L115.8,39.1z"/>
					<path class="st3" d="M144.3,218.8c0.2,2.8-2.7,3.8-5,1.9l-0.4-0.5c0.3-0.3,0.2-0.8-0.1-1.1c-0.4-4.2-0.5-8.5,0.8-12.5
						c0.6-1.9,1.6-3.7,3-5.2c1.7-1.9,4-3.3,6.5-3.7l0.4,0.3c-1.1,1.7-0.9,3.6-0.3,5.7c-2.3,0.9-3.8,3.3-4.4,5.8
						c-0.4,1.9-0.5,4.1-0.4,6.2c0,0.8,0.1,1.6,0.2,2.3L144.3,218.8z"/>
					<path class="st6" d="M142.6,201.4l-0.3-0.9c0-0.4-0.1-0.7-0.1-1.1c0-3.5,2-4.9,4.3-6.2c-0.2,0-0.3,0-0.4,0v-0.8
						c0,0,0-0.1,0-0.1l1.9,0c5-0.2,9.9-0.3,14.9-0.4l0,1.3c1.9,0.7,2.8,2.9,2.6,5c-0.1,0.7-0.3,1.3-0.6,1.9c-0.7,1.4-2,2.5-3.4,3.2
						c-1,0.5-2,0.9-3,1.3c-3.3,1-5.7,0.7-9.1,0.1c-0.1-0.3-0.2-0.6-0.3-0.9c-0.6-2.1-0.8-4,0.3-5.7l-0.4-0.3
						C146.5,198.1,144.3,199.5,142.6,201.4z"/>
					<path class="st4" d="M141.4,182.9c-2,0.4-4-0.1-5.9-0.6c-0.9-0.3-1.9-0.5-2.7-1.2c-2-1.6-1.8-4.5-1.4-7c0.3-2,0.6-4.1,0.8-6.1
						c4,0.2,8.1,0.3,12.1,0.5l1.2,0c0.1,3.6,0.2,7.2,0.3,10.8h-0.1C145.3,181.2,143.4,182.5,141.4,182.9z"/>
					<path class="st4" d="M129.8,109.2c4.6-0.3,9.3-2,13.7-4.5l0.4,0.7c2.3,0.6,4.5,1.6,6.5,3.1v0.1c-0.6,0.1-1.2,0.3-1.7,0.5
						c-3,1.3-4.9,4.5-5.5,7.7c-0.6,3.2-0.2,6.5,0.3,9.8h0c1,13.9,1.7,27.9,2.1,41.9l-1.2,0c-4.1-0.2-8.1-0.3-12.1-0.5
						c-0.3,2-0.6,4.1-0.8,6.1c-0.4,2.5-0.5,5.4,1.4,7c0.8,0.6,1.7,0.9,2.7,1.2c1.9,0.5,4,1,5.9,0.6c2-0.4,3.9-1.7,4.4-3.6h0.1
						c0.1,4.4,0.2,8.7,0.2,13.1c0,0.1,0,0.1,0,0.1v0.8c-2.7,0-5.4,0-8.1,0c-5.4,0-10.7,0-16.1,0.1c0-4.6,0.1-9,0.3-13.5
						c0-0.5,0-1,0.1-1.6c0-0.9,0.1-1.8,0.1-2.7c0.2-2.9,0.3-5.9,0.5-8.8c0-0.1,0-0.1,0-0.1c1-13.2,2.5-26.4,4.4-39.7
						c0.4-2.5,0.7-5,1.1-7.5c0.2-1.3,0.4-2.7,0.6-4.1c0.1-0.8,0.3-1.6,0.4-2.4c0.1-0.8,0.3-1.6,0.4-2.4v-0.1L129.8,109.2z"/>
					<path class="st2" d="M129.9,110.7c-0.1,0.8-0.3,1.6-0.4,2.4C129.6,112.2,129.8,111.4,129.9,110.7L129.9,110.7z"/>
					<path class="st2" d="M127.5,57.3c2.3-1,5.1,0,6.6,2c1.5,2,1.7,4.8,0.9,7.1c-0.9,2.4-3.1,4.6-5.7,4.3c-0.6-0.1-1.1-0.3-1.6-0.6
						l0,0c1.8-3.2,2.3-7.1,1.2-10.6c-0.3-0.8-0.7-1.7-1.5-1.9L127.5,57.3z"/>
					<path class="st1" d="M128.9,59.3c1.1,3.5,0.6,7.5-1.2,10.6l0,0h0c-1.6-1-2.6-3-2.7-5c-0.2-2.7,0.6-5.4,2.3-7.4l0.1-0.2
						c0,0,0.1,0,0.2,0C128.2,57.6,128.6,58.5,128.9,59.3z"/>
					<path class="st7" d="M128.9,233.8c1,1.3,1.6,2.9,2.1,4.6c2.4,8.4,0.7,33.5-0.5,36c-1.4,3.1-2.6,4.3-3.7,4.7
						c-1.2,0.5-2.1-0.1-2.5-0.1c-2.3,0.1-3.4-2.7-3.8-4.9c-1-5.9-1.5-11.8-1.5-17.8c0-3.3,0.1-6.6,0.4-9.9c0.3-3.3,0.8-12.7,3.6-15
						C124.5,230.2,126.3,230.6,128.9,233.8z"/>
					<path class="st7" d="M126.9,279c1-0.4,2.3-1.6,3.7-4.7c1.1-2.5,2.9-27.6,0.5-36c-0.5-1.6-1.1-3.2-2.1-4.6
						c-2.6-3.2-4.4-3.6-5.8-2.5l-0.1-0.1c1.6-1.8,3.3-3.5,5.1-5c2.9-2.4,6-4.5,9.4-6.2l1.2-0.1c0,0.2,0,0.3,0,0.5l0.4,0.5
						c2.3,1.9,5.2,0.9,5-1.9l0.4-0.8c-0.1-0.8-0.2-1.5-0.2-2.3l1.3-0.1c10.6-3.6,9.1-4.1,19.7-7.7l0.4-0.2c0.3,1,0.4,2,0.1,2.7
						c0,0,3.5,4.2,4.9-2.4c0.2-0.8,0.2-1.6,0.2-2.4l0.3,0c0,0,7.6-3.6,10.4-2.2c4.1,2.1,5.3,7.4,6.1,11.9c1.2,6.2,1.9,12.6,1.3,19
						c-0.4,4.2-1.5,8.4-3.1,12.3C185.9,246.6,144.9,277.9,126.9,279z"/>
					<path class="st4" d="M127.3,127c-1.9,13.3-3.5,26.5-4.4,39.7C123.8,153.4,125.4,140.4,127.3,127z"/>
					<path class="st2" d="M129.9,110.6c-0.1,0.8-0.3,1.6-0.4,2.4c-0.1,0.8-0.3,1.6-0.4,2.4c-0.2,1.4-0.4,2.7-0.6,4.1
						c-0.4,2.5-0.8,5-1.1,7.5c-2,13.4-3.5,26.4-4.4,39.7c0,0,0,0.1,0,0.1c-0.2,2.9-0.4,5.9-0.5,8.8c0,0.9-0.1,1.8-0.1,2.7
						c0,0.5,0,1-0.1,1.6l-0.6,0c-0.2,0-0.3-0.1-0.5-0.1c-0.1,0-0.1,0-0.2,0c0,0,0,0,0,0h0c-2.6-0.2-6,0.2-8.4-0.2l-1.2,0
						c0.6-24.4,2.1-48.9,7.8-72.6c0-0.1,0-0.2,0-0.2c3.4,2,7.1,2.7,10.8,2.5L129.9,110.6z"/>
					<path class="st2" d="M119,55.8c1.5,2,1.7,4.8,0.9,7.1c-0.8,2.4-3.1,4.6-5.6,4.3c-0.6-0.1-1.2-0.3-1.6-0.6v0
						c1.8-3.2,2.3-7.1,1.2-10.6c-0.2-0.8-0.7-1.7-1.5-2l0-0.1C114.6,52.9,117.5,53.8,119,55.8z"/>
					<path class="st1" d="M109.8,61.5c-0.2-2.7,0.6-5.4,2.3-7.4l0-0.2c0.1,0,0.1,0,0.2,0c0.8,0.3,1.2,1.2,1.5,2
						c1.1,3.5,0.6,7.5-1.2,10.6v0C110.9,65.6,110,63.5,109.8,61.5z"/>
					<path class="st4" d="M111.1,187.8v0.2c-4-0.1-3.8,0-5.8-0.3c-0.6-0.1-1.4-0.2-2.5-0.4c-0.5-7.7-0.4-16.4,0.2-25
						c1.3-21.8,5.2-43.5,7.9-48.8c3-5.8,6.7-7.2,7.9-7c0,0,0,0,0,0c0.1,0.1,0.2,0.2,0.4,0.2c0,0,0,0.1,0,0.2
						c-5.7,23.7-7.2,48.2-7.8,72.6C111.2,182.3,111.1,185.1,111.1,187.8z"/>
					<path class="st6" d="M119.8,63c0.8-2.3,0.6-5.1-0.9-7.1c-1.5-2-4.3-3-6.6-2l0,0.1c0,0-0.1,0-0.2,0l0,0.2
						c-1.7,2-2.6,4.8-2.3,7.4c0.2,2,1.2,4,2.8,5c0.5,0.3,1,0.6,1.6,0.6C116.7,67.5,119,65.4,119.8,63z M129.3,70.6
						c2.5,0.3,4.8-1.8,5.7-4.3c0.8-2.3,0.6-5.1-0.9-7.1c-1.5-2-4.3-3-6.6-2l0,0.1c-0.1,0-0.1,0-0.2,0l-0.1,0.2
						c-1.7,2-2.6,4.8-2.3,7.4c0.2,2,1.2,4,2.7,5h0C128.1,70.3,128.7,70.5,129.3,70.6z M129.8,109.2c-3.7,0.3-7.4-0.4-10.8-2.5
						c0-0.1-0.2-0.2-0.4-0.2c0,0,0,0,0,0c0,0-0.1,0-0.1-0.1c-7.2-4.6-10.8-13.2-12.4-21.6c-4-20.3,1-30.2,9.5-45.4l0.3-0.2
						c3.1,4.9,7.8,8.7,12.8,11.7c6,3.5,16.6,3.7,16.6,3.7c-1.3,8-1.6,13.2-1.3,20.9l0.6,0c1.7-2.7,6.3-3.8,7.7-0.9
						c0.9,1.8-0.2,4-1.5,5.6c-1.5,1.9-3.2,3.5-5.2,4.9l-0.3,0.1c1.3,4.8,4.2,9.2,8.1,12.3c-0.7,0.8-1.4,1.5-2.2,2.1
						c-2.3,1.9-4.9,3.6-7.6,5.1C139.1,107.2,134.4,108.9,129.8,109.2z"/>
					<path class="st8" d="M138,194.1c-2.7,9.7-6.8,21.8-9.9,31.8l0.1,0.2c-1.8,1.6-3.5,3.2-5.1,5l0.1,0.1c-2.9,2.3-3.4,11.7-3.6,15
						c-0.3,3.3-0.4,6.6-0.4,9.9c-5.4,16.4-8.6,21.9-13.7,37.4c-0.3-2-1.3-4.2-2.4-5.9c-1.5-2.3-2.9-4.6-4.3-6.8c0,0-0.9-1.1-2.3-2.5
						l0.3-0.3c4.3-24.5,9.1-44.8,15.6-67.2l-0.5-0.1c-3.1-4.9-7-16.8-6.8-22.5l0.1-0.5c2,0.3,1.8,0.2,5.8,0.3v-0.2
						c0-2.8,0.1-5.5,0.2-8.3l1.2,0c2.4,0.4,5.9,0,8.4,0.2h0c0,0,0,0,0,0c0,0,0.1,0,0.2,0c0.2,0,0.4,0,0.5,0.1l0.6,0
						c-0.2,4.4-0.3,8.9-0.3,13.5c5.4,0,10.7,0,16.1-0.1V194.1z"/>
					<path class="st2" d="M85.6,63.3l0-0.4c0.1,0.3,0.2,0.5,0.1,0.8c0,0,0,0.1,0,0.1C85.7,63.6,85.7,63.5,85.6,63.3z"/>
					<path class="st2" d="M85.6,63.3c0,0.2,0.1,0.3,0.1,0.5c0,0.1-0.1,0.2-0.1,0.3L85.6,63.3z"/>
					<path class="st6" d="M82.9,190c-2.2-2.5-2.3-6.2-1.8-9.5c0.2-1,0.4-2.1,1-2.9l0.2,0c0-0.2,0-0.3,0-0.5l0.4,0
						c3,1.1,6.3,1.7,9.5,1.6c-0.3,3.3-0.6,6.6-0.8,9.9c-0.1,1.4-0.3,2.8-0.8,4.1c-0.6,1.3-1.8,2.4-3.1,2.5l-0.7-0.1
						c-0.4,0.3-0.8,0.4-1.3,0.3c0-0.3,0-0.6,0-0.8l-0.4,0c-0.1,0.2-0.3,0.3-0.5,0.4c-0.7,0.2-1.1-0.8-1.1-1.5c0-1.2-0.1-2.3-0.1-3.5
						H82.9z"/>
					<path class="st1" d="M81.8,67.1c-0.6-0.1-1.2-0.6-1.5-1.2c-0.9-1.5-0.4-4,1-4.7c1.7-0.2,1.8,0.1,2.7,0.8c0.2,0.4,0.3,1,0.4,1.4
						c0,0.9-0.3,1.8-0.8,2.6c-0.2,0.3-0.4,0.6-0.7,0.8C82.5,66.9,82.2,67,81.8,67.1z"/>
					<path class="st5" d="M75.2,45.7c1.3-2.7,2.5-5.6,3.6-8.4l0.3-0.3c1.4,1.4,2.7,3.1,3.6,4.9c2.1,4.1,2.7,8.7,2.9,13.3l-0.3,0
						C80.6,54,76.7,50.3,75.2,45.7z"/>
					<path class="st2" d="M80.3,65.9c0.3,0.6,0.9,1.1,1.5,1.2c0.4-0.1,0.7-0.2,1-0.3c0.3-0.2,0.5-0.5,0.7-0.8
						c0.5-0.8,0.8-1.7,0.8-2.6c0-0.5-0.2-1-0.4-1.4c-1-0.7-1.1-1-2.7-0.8C80,61.9,79.5,64.4,80.3,65.9z M75.1,65.5
						c-3.8-1.6-0.7-3.2,2.2-4.1c0,0,4-1,6.5-0.1c1,0.4,1.3,0.6,1.7,1.6c0,0.1,0.1,0.3,0.1,0.4l0,0.8c0,0.5-0.1,1.1-0.1,1.6
						c-0.1,0.2-0.2,0.3-0.3,0.5c-0.8,0.7-1,0.7-2,0.9C79.6,67.7,78.6,67,75.1,65.5z"/>
					<path class="st1" d="M76.9,271.1c0.7-0.6,1.6-1,2.6-1.4c4.3-1.6,5.3-0.2,9.7,2c0,0,0,0,0,0c1.8,0.9,5,4.2,7.2,6.6
						c1.3,1.4,2.3,2.5,2.3,2.5c1.4,2.3,2.8,4.5,4.3,6.8c1.1,1.7,2.1,3.9,2.4,5.9c0.2,1.7-0.1,3.2-1.4,4.4c-0.5,0.4-1,0.7-1.5,0.8
						l-0.2-0.6c-2.1-9.4-9.6-16.6-17-22.9C82.9,273.3,80.1,271.1,76.9,271.1L76.9,271.1z"/>
					<path class="st9" d="M64.4,282.3c5.7-4.9,11.9-12.3,13.8-19.6c0,0.1,0.1,0.2,0.2,0.3c0,0,1.8,1.9,4.3,1c2.5-0.9,3-2.2,3-2.2
						c0-0.2-0.1-0.4-0.1-0.6c3.7,1,4.8,6.7,3.8,10.4l0,0.1c-4.4-2.2-5.4-3.6-9.7-2c-1,0.4-1.9,0.8-2.6,1.4c-1.9,1.5-2.5,3.6-1.5,6.4
						c0.6,1.7,1.5,3.1,2.6,4.5C74,284,68.4,284.1,64.4,282.3z"/>
					<path class="st8" d="M74.5,96.7c0,0,1.5,1.2,2.7,1.9c1.1,0.8,0.8,5.4,0.8,5.4c6.7,3.1,13.1,13.4,14.5,22.4
						c1.4,9,2.9,20.4,2.4,29.5c-0.1,2-0.2,3.9-0.3,5.9c-0.3,5.4-0.6,10.8-0.9,16.2l-1.5,0.5c0,0.1,0,0.2,0,0.3
						c-3.2,0.1-6.5-0.5-9.5-1.6l-0.4,0c0-0.2,0-0.4,0-0.6c-1.4,0.4-2.8,0.9-4.2,1.4c-4.2,1.5-8.3,3.2-12.3,5.2l-0.3,0
						c0.2-4,0.4-7.9,0.5-11.8c0.6-18.6,0.4-35.4,1.1-54.3c0.1-2.9,0.2-5.9,0.4-8.9c0,0,6.7-2.5,6.7-4.8c0-2.3-2.3-5.1-2.3-5.1
						l-0.1-0.2c0.7-0.3,1.3-0.8,2-1.4L74.5,96.7z"/>
					<path class="st8" d="M78.1,262.7c-2.2-4.4-11.7-18.6-12.8-22.5l-0.5-0.1c1.6-7,3.2-14,4.7-21h0l0.5,0.1
						c3.8,8.5,12.7,28,15.5,42.1c0,0.2,0.1,0.4,0.1,0.6c0,0-0.5,1.3-3,2.2c-2.6,0.9-4.3-1-4.3-1C78.2,262.9,78.2,262.8,78.1,262.7z"
						/>
					<path class="st5" d="M68.5,55c1.6-1,3-2.1,4-3.7C71.4,53,70,54.1,68.5,55z"/>
					<path class="st8" d="M49.4,276.1c-1.6-0.5-3.2-1-4.8-1.7l0.5-1.3c1.7-13,3.6-25.3,5.8-37.2c0.8-4.6,1.7-9.1,2.7-13.6l-0.8-0.2
						c-5.1-9.7-5.1-22.8-3.8-35.2c0.2-2.3,0.5-4.5,0.9-6.7c0.5-3.1,1-6.1,1.4-8.9l0.3,0c4.8,0.3,9.3,0.7,14-0.3h0.4
						c-0.1,3.9-0.3,7.8-0.5,11.8l0.3,0c4-2,8.1-3.7,12.3-5.2l0.1,0.4c-2.8,13.8-5.7,27.3-8.6,40.8h0c-1.5,7-3.1,14-4.7,21
						c-2.8,12.1-5.7,24.2-8.8,36.5C53.7,275.6,49.4,276.1,49.4,276.1z"/>
					<path class="st1" d="M66.5,65.3c-0.2,0.3-0.4,0.6-0.7,0.8c-0.4,0.1-0.7,0.2-1,0.3c-0.6-0.1-1.2-0.6-1.5-1.2
						c-0.9-1.5-0.7-4.7,0.7-5.4c1.1,0.3,2.2,0.3,3.2,1c0.2,0.4,0.3,1.5,0.3,2C67.3,63.6,67,64.5,66.5,65.3z"/>
					<path class="st2" d="M58.5,59.3c2.5-0.2,5.7,0,7.8,0.8c1,0.4,2.5,1.4,2.9,2.4c0.4,1,0,2.1-0.8,2.9c-0.8,0.7-1.8,1.1-2.8,1.3
						c-3.5,0.7-7.3-0.1-10.2-2.2c-0.5-0.4-1.1-0.8-1.4-1.4c-0.3-0.5-0.5-1.4-0.4-2c0.2,0,0.4-0.1,0.6-0.1c0.3-0.1,0.6-0.2,0.9-0.3
						c0,0-0.1,0.1-0.1,0.1c1.1-0.3,2.2-0.7,3.2-1.2c-0.1,0-0.3,0.1-0.4,0.1C58,59.6,58.2,59.5,58.5,59.3z M65.7,66.1
						c0.3-0.2,0.5-0.5,0.7-0.8c0.5-0.8,0.8-1.7,0.8-2.6c0-0.5,0-1.6-0.3-2c-1-0.7-2.1-0.6-3.2-1c-1.4,0.8-1.5,4-0.7,5.4
						c0.3,0.6,0.9,1.1,1.5,1.2C65.1,66.3,65.4,66.2,65.7,66.1z"/>
					<path class="st5" d="M68.5,55c-1.6,0.9-3.3,1.5-5.3,2.3c-1.6,0.6-3.1,1.4-4.7,2.1c-0.2,0-0.5,0-0.7,0.1c0.3-0.2,0.7-0.4,1-0.5
						c0.6-0.3,1.2-0.6,1.7-0.7c4.2-1.6,10.3-3.5,12.4-7.5c-0.1,0.3-0.3,0.5-0.4,0.7C71.4,52.9,70,54,68.5,55z"/>
					<path class="st6" d="M71.8,98.1c0,0,2.3,2.8,2.3,5.1c0,2.3-6.7,4.8-6.7,4.8c-0.2,3-0.3,6-0.4,8.9c-1.5,2.4-4.6,3.8-7.4,3.1
						c-2.9-0.7-4.2-3.9-4.3-6.9l0,0c1.2-2.3,2-4.7,2.1-7.1l1.3-9.2c-0.3-0.6-0.6-0.9-1.1-0.9l1.3-0.9c4.3,3.4,8.7,4.8,12.6,2.8
						L71.8,98.1z"/>
					<path class="st5" d="M57.8,59.4c0,0-0.1,0-0.2,0c0.4-0.2,0.8-0.4,1.2-0.6C58.4,59,58.1,59.2,57.8,59.4z"/>
					<path class="st5" d="M57.6,59.7c-0.3,0.1-0.6,0.2-0.9,0.3c0.4-0.2,0.7-0.4,1.1-0.6c0.2,0,0.5,0,0.7-0.1
						C58.2,59.5,58,59.6,57.6,59.7C57.7,59.7,57.7,59.7,57.6,59.7z"/>
					<path class="st5" d="M57.8,59.4c-0.4,0.2-0.7,0.4-1.1,0.6c0,0,0,0,0,0c0,0,0,0,0,0c0,0,0,0-0.1,0c-0.2,0-0.3,0.1-0.5,0.1
						c0.4-0.2,0.9-0.5,1.5-0.7C57.7,59.4,57.7,59.4,57.8,59.4z"/>
					<path class="st2" d="M57.6,59.7c-0.7,0.3-1.4,0.6-2.1,0.8c0.4-0.2,0.7-0.3,1.1-0.5c0,0,0,0,0.1,0c0,0,0,0,0,0c0,0,0,0,0,0
						C57,59.9,57.3,59.8,57.6,59.7z"/>
					<path class="st2" d="M55.5,60.5C55.5,60.5,55.5,60.5,55.5,60.5c-0.1,0-0.1,0-0.2,0.1c0.1-0.1,0.4-0.2,0.7-0.4c0,0,0.1,0,0.1,0
						c0.1,0,0.3-0.1,0.5-0.1C56.2,60.2,55.9,60.4,55.5,60.5z"/>
					<path class="st2" d="M67.1,117c-0.7,18.9-0.5,35.6-1.1,54.3h-0.4c-4.7,1-9.2,0.5-14,0.3l-0.3,0c0.1-0.2,0.1-0.4,0.1-0.6l-0.6-1
						c0.7-15,1.7-19.4,1.3-32.2c-0.1-3.7-2.9-7.3-2.7-11.1c0.3-4.2,3.6-8.7,5.9-13.4l0,0c0,3,1.3,6.2,4.3,6.9
						C62.4,120.8,65.6,119.4,67.1,117z"/>
					<path class="st2" d="M55.1,60.7c0.3-0.2,0.6-0.3,1-0.5c-0.4,0.2-0.6,0.3-0.7,0.4l0,0c0,0,0,0,0,0
						C55.2,60.6,55.2,60.6,55.1,60.7C55.1,60.7,55.1,60.7,55.1,60.7z"/>
					<path class="st2" d="M58.1,59.6c-1,0.5-2.1,0.9-3.2,1.2c0.1,0,0.1,0,0.1-0.1c0,0,0,0,0,0c0,0,0,0,0,0h0c0,0,0,0,0.1,0
						c0,0,0.1,0,0.2,0c0,0,0,0,0,0l0,0c0,0,0.1,0,0.1,0c0,0,0,0,0.1,0c0.7-0.2,1.4-0.5,2.1-0.8c0,0,0,0,0.1,0
						C57.8,59.7,57.9,59.6,58.1,59.6z"/>
					<path class="st8" d="M39.9,174.7c0-0.3,0-0.5,0-0.8c0.4-24.5,2.7-44.1,10.7-68.2l-1.2,0c0.3-0.1,0.7-0.3,1.1-0.4
						c0,0,4.8-9.3,7.3-9.3c0.4,0,0.8,0.3,1.1,0.9l-1.3,9.2c-0.1,2.4-1,4.8-2.1,7.1c-2.3,4.7-5.6,9.2-5.9,13.4
						c-0.3,3.8,2.6,7.4,2.7,11.1c0.4,12.8-0.6,17.1-1.3,32.2l0.6,1c0,0.2-0.1,0.4-0.1,0.6c-0.5,2.8-1,5.8-1.4,8.9l-0.6-0.1
						c-2.3,0.1-3.9,0-5.7,0.1c-0.8,0.1-1.7,0.2-2.7,0.3l-1-0.6C39.9,178.3,39.9,176.4,39.9,174.7z"/>
					<path class="st5" d="M41.9,67.5c-1.5-7.4-2.5-12.6-0.2-18.4c0.6-1.5,1.4-3,2.4-4.7c0,0,1.9-3.8,5.5-7.4c3.4-3.4,8.5-6.7,15-6.4
						c5.4,0.2,10.7,2.6,14.5,6.4l-0.3,0.3c-1.1,2.8-2.3,5.7-3.6,8.4c-0.8,1.6-1.6,3.3-2.4,4.9c-2.1,4-8.2,5.9-12.4,7.5
						c-0.5,0.2-1.1,0.4-1.7,0.7c-0.4,0.2-0.8,0.4-1.2,0.6c-0.6,0.3-1.1,0.5-1.5,0.7c0,0-0.1,0-0.1,0c-0.4,0.2-0.7,0.3-1,0.5h0
						c0,0,0,0,0,0c0,0,0,0,0,0c-0.5,0.1-1,0.3-1.5,0.3c-0.1,0-0.2,0.1-0.3,0.1c-0.1,0-0.2,0.1-0.3,0.1c-0.2,0-0.5,0.1-0.7,0.1
						c-4,0.3-8.4,2.8-8.4,6.7h-0.9C42.6,67.7,42.2,67.6,41.9,67.5z"/>
					<path class="st6" d="M40.3,67.8c0.5-0.3,1-0.4,1.5-0.3c0.4,0.1,0.7,0.2,1.1,0.4h0.9c0-3.9,4.5-6.4,8.4-6.7c0.3,0,0.5,0,0.7-0.1
						c0.1,0,0.2,0,0.3-0.1c0.1,0,0.2,0,0.3,0c-0.1,0.6,0.1,1.5,0.4,2c0.4,0.6,0.9,1,1.4,1.4c2.9,2.1,6.7,2.9,10.2,2.2
						c1-0.2,2.1-0.6,2.8-1.3c0.8-0.7,1.2-1.9,0.8-2.9c-0.4-1-1.9-2-2.9-2.4c-2.1-0.8-5.2-1-7.8-0.8c1.6-0.7,3.1-1.5,4.7-2.1
						c2-0.8,3.7-1.4,5.3-2.3c1.6-0.8,2.9-1.9,4-3.7c0.2-0.2,0.3-0.5,0.4-0.7c0.8-1.6,1.6-3.2,2.4-4.9c1.5,4.6,5.4,8.3,10,9.6l0.3,0
						c0,0.9,0,1.8,0.1,2.6c0,1.7,0,3.3,0,5l0,0.4c0-0.2-0.1-0.3-0.1-0.4c-0.4-1-0.7-1.2-1.7-1.6c-2.4-0.9-6.5,0.1-6.5,0.1
						c-2.9,1-6.1,2.5-2.2,4.1c3.5,1.5,4.5,2.2,8,1.5c1-0.2,1.2-0.2,2-0.9c0.1-0.1,0.3-0.3,0.3-0.5c-0.8,10.4-3.6,20.7-9.9,28.9
						c-0.6,0.8-1.2,1.4-1.8,1.9c-0.7,0.6-1.3,1-2,1.4c-3.9,2-8.4,0.6-12.6-2.8c-4.9-3.9-10.1-11.4-13.3-18l-1.1,0
						c-0.9,0-1.8-0.4-2.5-1c-1-0.8-1.5-2-2.1-3.1c-0.4-0.9-0.8-1.7-0.9-2.7C39.2,69.3,39.5,68.3,40.3,67.8z"/>
					<path class="st5" d="M40.5,48.2c-3.8-1.1-7.2-3.6-9.1-7.1c-1.9-3.5-1.9-8,0.2-11.2c2.2-3.3,6.7-5,10.3-3.5
						c2.8,1.1,7.4,5.4,7.6,10.6c-3.6,3.6-5.5,7.4-5.5,7.4c-1,1.6-1.8,3.1-2.4,4.7L40.5,48.2z"/>
					<path class="st8" d="M39.9,173.9l-5.6,1c2.3-23.2,3.6-36.1,8.4-58.8c1.2-5.7,1.8-8.4,6.7-10.3l1.2,0
						C42.6,129.8,40.3,149.4,39.9,173.9L39.9,173.9z"/>
					<path class="st3" d="M35.6,190.4c0,0.3,0,0.6-0.1,0.9c-0.2,0.3-0.6,0.4-1,0.4c-1.7,0.3-3.9,0.3-4.9-1c-0.1-0.1-0.2-0.3-0.2-0.4
						l0.1-0.4c-0.3-1.2,0.8-3.8,2.1-5.9c1.3-1,2.2-2.5,2.8-3.4l0.2-0.4c1.4,0.7,2.5,2,2.7,3.5c0.1,0.5,0.1,1,0.2,1.5
						c-1.2,1.4-2,3.2-1.9,5C35.5,190.3,35.6,190.3,35.6,190.4z"/>
					<path class="st6" d="M37.2,183.7c-0.2-1.5-1.3-2.9-2.7-3.5l-0.2,0.4c-0.7,0.5-1.8,1.8-2.8,3.4c-1.3,1-2.9,1.4-4.9-0.5
						c-0.6-0.5-0.1-1.5,0-2.3c0.3-1.3,0.8-2.5,1.7-3.4c3.4-3.5,10.2-3.2,11.5-3.1c0,1.7,0,3.5,0,5.4l1,0.6c1-0.2,1.8-0.3,2.7-0.3
						l0,0.2c0.3,2.4-1.3,5-3.7,5.7c-0.6,0.2-1.4,0.3-2-0.1c-0.3-0.3-0.5-0.6-0.6-1C37.3,184.7,37.3,184.2,37.2,183.7z"/>
					<path class="st9" d="M25.7,264.8c5.9,3.9,12.3,7.1,18.9,9.6c1.6,0.6,3.2,1.2,4.8,1.7c0,0,4.3-0.5,6.7,0.5
						c0.5,0.2,0.9,0.4,1.1,0.7c0.8,1,0.6,2.4,0.3,3.6c-0.1,0.5-0.3,0.9-0.4,1.3c-1,3.1-2.6,6-4.7,8.6c-0.4,0.4-0.7,0.9-1.3,1
						c-1.3,0.3-2.1-1.3-2.2-2.6c-0.1-1.2,0-2.4,0.3-3.6c-5.7,0.7-13.3-1.4-17.5-5.3s-6.5-9.7-6.2-15.5L25.7,264.8z"/>
					<path class="st3" d="M35.4,191.2c0.2-0.2,0.2-0.6,0.1-0.9c4.4-1.6,9-1.8,13.4-3.3c-1.4,12.4-1.3,25.5,3.8,35.2l0.8,0.2
						c-1,4.5-1.8,9-2.7,13.6l-1.8-0.3c-8.8,3.6-14,5.5-24.5,9.4c-0.6,0.2-7,2.2-8.1,2l0-0.5c0.2-0.2,0.4-0.5,0.5-0.7
						c0.2-0.4,0.2-0.9,0.3-1.3c0.9-14.8,1.2-29.6,0.8-44.4c0-1.5-0.1-3.2-1.1-4.4c-0.6-0.7-1.2-1.1-1.8-1.3l0,0
						c7-2.4,7.1-1.2,14.1-3.5l0.3-0.2c1,1.3,3.1,1.3,4.9,1C34.8,191.6,35.2,191.5,35.4,191.2z"/>
					<path class="st3" d="M18.1,200c0.4,14.8,0.1,29.6-0.8,44.4c-0.1,0.5-0.1,0.9-0.3,1.3c-0.1,0.3-0.3,0.5-0.5,0.7
						c-0.4,0.3-0.9,0.5-1.4,0.6c-2.6,0.6-5.3-1.4-6.3-3.9c-1.1-2.5-1-5.3-0.9-8c0.5-10.9,1-21.9,1.5-32.9c0.1-2.2,2.6-8.9,5.8-8
						c0.6,0.2,1.2,0.6,1.8,1.3C18,196.8,18.1,198.5,18.1,200z"/>
				</g>
				<g>
					<g>
						<path class="st1" d="M96.8,279.1c-0.1,0-0.1,0-0.2,0c-0.6-0.1-1-0.7-0.9-1.3c4.1-23.8,8.8-44,15.7-67.3c1.5-5,3-10.2,4.7-15.5
							c0.2-0.6,0.8-0.9,1.4-0.7c0.6,0.2,0.9,0.8,0.7,1.4c-1.7,5.3-3.2,10.5-4.7,15.5c-6.8,23.3-11.5,43.4-15.6,67.1
							C97.8,278.8,97.3,279.1,96.8,279.1z"/>
					</g>
					<g>
						<path class="st1" d="M101.2,300.1c-2.6,0-5.4-1.6-7.4-3.2c-3.7-2.8-7.5-5.8-11.4-9.1c-1.7-1.4-3.7-3.1-5.3-5.1
							c-1.3-1.6-2.2-3.2-2.8-4.8c-1.4-4.1,0.3-6.4,1.9-7.7c0.7-0.6,1.7-1.1,2.9-1.6c4-1.5,5.7-0.6,8.5,1c0.6,0.3,1.3,0.7,2.1,1.1
							l0,0c0,0,0,0,0.1,0c1.9,1,5.1,4.2,7.5,6.8l0,0c1.4,1.5,2.3,2.5,2.3,2.5c0.8,1.2,1.5,2.3,2.2,3.4c0.7,1.2,1.5,2.3,2.2,3.5
							c0.8,1.3,2.2,3.8,2.6,6.4c0.3,2.2-0.3,4.1-1.8,5.3c-0.6,0.5-1.2,0.8-1.9,1C102.3,300,101.8,300.1,101.2,300.1z M82.7,270.2
							c-0.8,0-1.6,0.2-2.8,0.6c-1,0.3-1.7,0.8-2.3,1.2c-1.6,1.2-2,2.9-1.2,5.2c0.5,1.4,1.2,2.7,2.4,4.2c1.5,1.8,3.4,3.4,5,4.8
							c3.8,3.2,7.6,6.2,11.3,9c2.8,2.1,5.4,3.1,7.1,2.6c0.4-0.1,0.8-0.3,1.1-0.6c0.9-0.8,1.2-1.9,1-3.4c-0.2-1.6-1-3.5-2.2-5.5
							c-0.7-1.2-1.5-2.4-2.2-3.5l-2.1-3.3l0,0c0,0-0.9-1-2.2-2.4c0,0,0,0,0,0c-3.1-3.4-5.6-5.7-6.9-6.3c0,0,0,0-0.1,0
							c-0.8-0.4-1.5-0.8-2.1-1.1C84.9,270.7,83.9,270.2,82.7,270.2z"/>
					</g>
					<g>
						<path class="st1" d="M128.1,227.1c-0.1,0-0.2,0-0.3,0c-0.6-0.2-0.9-0.8-0.7-1.4c1-3.2,2.1-6.5,3.2-10
							c2.4-7.5,4.9-15.2,6.8-21.8c0.2-0.6,0.8-0.9,1.4-0.8c0.6,0.2,0.9,0.8,0.8,1.4c-1.9,6.6-4.4,14.4-6.8,21.9
							c-1.1,3.4-2.2,6.8-3.2,9.9C129,226.8,128.5,227.1,128.1,227.1z"/>
					</g>
					<g>
						<path class="st1" d="M105.3,295.4c-0.1,0-0.2,0-0.3,0c-0.6-0.2-0.9-0.8-0.7-1.4l0.2-0.7c2.5-7.6,4.6-12.9,6.6-18
							c2.1-5.4,4.3-11,7.1-19.4c0.2-0.6,0.8-1.1,1.4-0.9c0.6,0.2,1,0.6,0.8,1.2c0,0.1-0.1,0.3-0.1,0.5c-2.7,8.4-5,14.1-7.1,19.5
							c-2,5.1-4.1,10.3-6.6,17.8l-0.2,0.7C106.2,295.1,105.7,295.4,105.3,295.4z"/>
					</g>
					<g>
						<path class="st1" d="M121.9,194.6L121.9,194.6c-0.6,0-1.1-0.4-1.1-1c0-5,0.1-9.4,0.3-13.7c0-0.5,0-1,0.1-1.6
							c0-0.9,0.1-1.8,0.1-2.7c0.2-2.9,0.3-5.9,0.5-8.8c0.9-12.8,2.4-25.9,4.4-39.9c0.4-2.5,0.7-5,1.1-7.5c0.1-0.8,0.3-1.6,0.4-2.4
							l1.1-6.5c0.1-0.5,0.1-0.9,0.2-1.4c0.1-0.6,0.7-1,1.3-0.9c0.6,0.1,1,0.7,0.9,1.3c-0.1,0.5-0.1,0.9-0.2,1.3l-1,6.5
							c-0.1,0.8-0.3,1.6-0.4,2.5c-0.4,2.5-0.8,5-1.1,7.5c-2.1,14-3.5,27-4.4,39.7c0,0.1,0,0.3,0,0.3c-0.2,2.7-0.3,5.7-0.5,8.6
							c0,0.9-0.1,1.7-0.1,2.6c0,0.7-0.1,1.2-0.1,1.7c-0.2,4.2-0.3,8.6-0.3,13.4C123,194,122.5,194.6,121.9,194.6z"/>
					</g>
					<g>
						<path class="st1" d="M147.6,194.4h-1c-0.6,0-1.1-0.5-1.1-1.1s0.5-1.1,1.1-1.1h1c0.6,0,1.1,0.5,1.1,1.1
							S148.2,194.4,147.6,194.4z"/>
					</g>
					<g>
						<path class="st1" d="M121.9,194.5l-0.1-2.2h0c5.4,0,10.7,0,16.1-0.1c2.7,0,5.4,0,8.1,0h0.4c0.6,0,1.1,0.5,1.1,1.1
							s-0.5,1.1-1.1,1.1h-0.4c-2.7,0-5.4,0-8.1,0C132.6,194.4,127.3,194.4,121.9,194.5z"/>
					</g>
					<g>
						<path class="st1" d="M111.1,188.9C111.1,188.9,111,188.9,111.1,188.9c-0.6,0-1.1-0.5-1.1-1.1c0-2.7,0.1-5.4,0.2-8.1
							c0.6-23.5,2-48.4,7.7-72.5c-0.2-0.2-0.3-0.6-0.3-0.9c0.1-0.6,0.7-1,1.3-0.9c0.8,0.1,1.1,0.6,1.2,0.9c0.1,0.2,0.1,0.7,0.1,0.9
							c-5.8,24.1-7.2,49-7.8,72.4c-0.1,2.9-0.1,5.6-0.2,8.3C112.2,188.4,111.7,188.9,111.1,188.9z M118.5,107.6L118.5,107.6
							L118.5,107.6z"/>
					</g>
					<g>
						<path class="st1" d="M102.7,187.5h-1.1v-0.2c-0.5-7.2-0.4-15.7,0.2-25.1c1.3-20.4,5-43.4,8-49.2c3.2-6.2,7.3-7.9,9.1-7.6
							c0.6,0.1,1,0.7,0.9,1.3c-0.1,0.6-0.7,1-1.3,0.9c-0.5,0-3.8,0.7-6.7,6.4c-2.6,5-6.4,26-7.7,48.3c-0.6,9.3-0.6,17.7-0.2,24.9
							L102.7,187.5z"/>
					</g>
					<g>
						<path class="st1" d="M111.2,189.1l-2.6,0c-1.6,0-1.9,0-3.5-0.3l-2.5-0.4c-0.6-0.1-1.1-0.7-1-1.3c0.1-0.6,0.6-1.1,1.1-1
							l-0.1,1.1l0.2-1.1c0.1,0,0.3,0,0.3,0.1l2.4,0.3c1.4,0.2,1.6,0.2,3.2,0.2l2.5,0.1c0.6,0,1.2,0.5,1.2,1.1
							C112.2,188.6,111.8,189.1,111.2,189.1z"/>
					</g>
					<g>
						<path class="st1" d="M146.1,192.4H145c-0.1-4.4-0.1-8.8-0.2-13.2l0-1c-0.1-3.3-0.2-6.5-0.3-9.8c-0.4-13.7-1.2-27.8-2.1-41.9
							l-0.3-3.4c0-0.6,0.4-1.1,1-1.2c0,0,0.1,0,0.1,0c0.6,0,1.1,0.4,1.1,1l0.3,3.5c1,14.1,1.7,28.2,2.1,41.9
							c0.1,3.3,0.2,6.5,0.3,9.8l0,1c0.1,4.4,0.2,8.7,0.2,13.1L146.1,192.4z"/>
					</g>
					<g>
						<path class="st1" d="M148,193.4c-0.6,0-1.1-0.5-1.1-1.1c0-0.6,0.5-1.1,1.1-1.1c4.1-0.1,8.2-0.2,12.3-0.3l3.5-0.1
							c0.6,0,1.1,0.5,1.1,1.1c0,0.6-0.5,1.1-1.1,1.1l-3.4,0.1C156.2,193.2,152.1,193.3,148,193.4C148,193.4,148,193.4,148,193.4z"/>
					</g>
					<g>
						<path class="st1" d="M163.8,192.1c-0.6,0-1.1-0.5-1.1-1.1c-0.1-20.6-0.2-41.2-0.3-61.8c0-4.9-0.1-9.9-2.4-14
							c-2-3.7-6.2-6.1-9.6-5.5c-0.5,0.1-1,0.2-1.5,0.4c-2.8,1.2-4.4,4.3-4.9,6.9c-0.6,2.9-0.2,6,0.3,9.4c0.1,0.6-0.3,1.2-0.9,1.2
							c-0.7,0.1-1.2-0.3-1.2-0.9c-0.5-3.6-0.9-6.9-0.2-10.2c0.8-4,3.1-7.2,6.2-8.5c0.7-0.3,1.3-0.5,2-0.6c4.9-0.9,9.7,2.7,11.8,6.6
							c2.5,4.6,2.6,10.2,2.6,15.1c0.1,20.6,0.2,41.2,0.3,61.8C164.9,191.6,164.4,192.1,163.8,192.1L163.8,192.1z"/>
					</g>
					<g>
						<path class="st1" d="M142.2,201.6c-0.6,0-1.1-0.4-1.1-1c0-0.4,0-0.8,0-1.2c0-4.3,2.8-6,4.8-7.2c0.1,0,0.2-0.1,0.2-0.1
							c0.4-0.2,0.7-0.4,1.1-0.6c0.5-0.3,1.2-0.2,1.5,0.4c0.3,0.5,0.2,1.2-0.4,1.5c-0.5,0.3-0.9,0.6-1.4,0.8c0,0-0.1,0-0.1,0.1
							c-2.2,1.3-3.6,2.4-3.6,5.2c0,0.3,0,0.6,0,1C143.4,201,142.9,201.6,142.2,201.6C142.3,201.6,142.3,201.6,142.2,201.6z"/>
					</g>
					<g>
						<path class="st1" d="M154.3,206.3c-1.6,0-3.1-0.2-5-0.5c-0.4-0.1-0.7-0.4-0.9-0.7c-0.1-0.2-0.1-0.4-0.2-0.6l-0.1-0.3
							c-0.5-2-1-4.5,0.4-6.6c0.2-0.3,0.4-0.6,0.7-0.9c0.4-0.4,1.1-0.4,1.6,0c0.4,0.4,0.4,1.1,0,1.6c-0.2,0.2-0.3,0.4-0.4,0.5
							c-0.7,1.1-0.7,2.5-0.1,4.8l0.1,0.2c2.9,0.5,5,0.7,7.9-0.2c1.1-0.3,2-0.7,2.8-1.2c1.4-0.8,2.4-1.7,3-2.8
							c0.2-0.4,0.4-0.9,0.5-1.5c0.2-1.4-0.3-3.2-1.8-3.8c-0.6-0.2-0.9-0.9-0.7-1.4c0.2-0.6,0.9-0.9,1.4-0.7c2.2,0.8,3.6,3.4,3.3,6.1
							c-0.1,0.9-0.3,1.6-0.7,2.3c-0.8,1.5-2.1,2.7-3.9,3.7c-0.9,0.5-2,1-3.2,1.3C157.2,206.1,155.7,206.3,154.3,206.3z"/>
					</g>
					<g>
						<path class="st1" d="M128.4,110.4c-3.6,0-7-0.9-9.9-2.7c-0.1,0-0.2-0.1-0.4-0.2c-0.1-0.1-0.2-0.1-0.3-0.2
							c-6.2-3.9-10.7-11.6-12.7-22.1c-4-20.4,0.8-30.4,9.7-46.1c0,0,0-0.1,0.1-0.1c0.5-3.3,2.1-5.9,4.8-8c5.3-4,13.8-4.4,19.4-3.4
							c4.4,0.7,6.6,3.7,8.5,6.4c2,2.8,3.6,5.1,7.4,4.4c3.5-0.6,6.4,1,8.3,4.6c6.6,12,1.4,43.6-9.1,55.4c-0.8,0.9-1.6,1.7-2.3,2.3
							c-2.5,2-5.1,3.7-7.7,5.2c-4.9,2.8-9.7,4.3-14.1,4.6C129.4,110.4,128.9,110.4,128.4,110.4z M119.2,105.5c0.1,0,0.2,0.1,0.2,0.1
							c0.1,0,0.2,0.1,0.2,0.1c3,1.8,6.3,2.6,10.1,2.3c4.1-0.3,8.6-1.7,13.2-4.3c2.6-1.4,5.1-3.1,7.4-5c0.7-0.5,1.4-1.2,2.1-2
							c9.8-11.1,14.9-41.7,8.8-52.9c-1.5-2.7-3.5-3.9-6-3.5c-5.1,0.8-7.4-2.4-9.5-5.3c-1.8-2.5-3.6-4.9-7.1-5.5
							c-5.2-0.8-13-0.5-17.8,3c-2.2,1.7-3.6,3.9-3.9,6.6c0,0.2-0.1,0.4-0.2,0.5c0,0.1,0,0.1-0.1,0.2c-8.6,15.3-13.3,25-9.4,44.6
							C108.6,91.5,111.7,100.8,119.2,105.5z"/>
					</g>
					<g>
						<path class="st1" d="M144,78.2c-0.6,0-1.1-0.5-1.1-1.1l0-1.5c-0.3-7.3,0-12.5,1.1-19.9c-3-0.2-10.8-0.9-15.8-3.8
							c-5.8-3.4-10.2-7.4-13.1-12c0,0,0-0.1-0.1-0.1c-0.3-0.4-0.4-0.9-0.1-1.3c0.3-0.5,1-0.7,1.5-0.4c0.2,0.1,0.4,0.4,0.5,0.5
							c2.8,4.4,7,8.2,12.5,11.4c5.7,3.3,15.9,3.5,16,3.5c0.3,0,0.6,0.1,0.8,0.4c0.2,0.2,0.3,0.6,0.2,0.9c-1.3,8-1.6,13-1.3,20.7
							l0,1.5C145.1,77.7,144.6,78.2,144,78.2C144,78.2,144,78.2,144,78.2z M115.1,40L115.1,40L115.1,40z M114.8,39.6
							c0,0,0,0.1,0.1,0.1C114.8,39.6,114.8,39.6,114.8,39.6z"/>
					</g>
					<g>
						<path class="st1" d="M145.5,86.2c-0.3,0-0.7-0.2-0.9-0.5c-0.4-0.5-0.2-1.2,0.2-1.5c1.9-1.4,3.6-2.9,4.9-4.7
							c0.8-1,2.1-3,1.4-4.4c-0.3-0.6-0.9-1-1.7-1c-0.1,0-0.1,0-0.2,0c-1.4,0-3.1,0.9-3.8,2.1c-0.3,0.5-1,0.7-1.5,0.4
							c-0.5-0.3-0.7-1-0.4-1.5c1.1-1.8,3.5-3.1,5.7-3.1c0.1,0,0.2,0,0.3,0c1.6,0.1,3,0.9,3.6,2.3c0.9,1.9,0.4,4.2-1.6,6.8
							c-1.5,1.9-3.3,3.7-5.4,5.1C146,86.2,145.8,86.2,145.5,86.2z"/>
					</g>
					<g>
						<path class="st1" d="M153.4,98.7c-0.2,0-0.4-0.1-0.6-0.2c-4.2-3.3-7.3-7.9-8.6-13c0,0-0.1-0.3-0.1-0.4
							c-0.1-0.6,0.3-1.2,0.9-1.2c0.6-0.1,1.2,0.3,1.3,0.9c1.3,4.7,4,8.9,7.7,11.8c0.5,0.4,0.6,1.1,0.3,1.6
							C154,98.5,153.7,98.7,153.4,98.7z"/>
					</g>
					<g>
						<path class="st1" d="M121.9,92.1c-3,0-6.1-1.6-7.8-4.1c-0.3-0.5-0.2-1.2,0.3-1.5c0.5-0.3,1.2-0.2,1.5,0.3
							c1.5,2.2,4.4,3.5,7,3.1c2.6-0.4,5-2.6,5.6-5.1c0.2-0.6,0.7-0.9,1.3-0.8c0.6,0.2,0.9,0.8,0.8,1.3c-0.9,3.5-3.9,6.2-7.4,6.8
							C122.8,92,122.4,92.1,121.9,92.1z"/>
					</g>
					<g>
						<path class="st1" d="M121.6,181c-0.1,0-0.1,0-0.2,0c-0.1,0-0.4,0-0.6-0.1c-1.2-0.1-2.6-0.1-4.1-0.2c-1.8,0-3.7-0.1-5.1-0.3
							c-0.6-0.1-1-0.7-0.9-1.3c0.1-0.6,0.6-1,1.3-0.9c1.3,0.2,3.1,0.2,4.8,0.3c1.5,0,3,0.1,4.2,0.2c0.3,0,0.6,0,0.8,0.1
							c0.6,0.1,1,0.7,0.9,1.3C122.6,180.6,122.1,181,121.6,181z"/>
					</g>
					<g>
						<path class="st1" d="M67.9,100c-3,0-6.2-1.3-9.5-4c-5.5-4.3-10.8-12.6-13.6-18.4c-0.3-0.5,0-1.2,0.5-1.5
							c0.6-0.2,1.2,0,1.5,0.5c3.6,7.4,8.8,14.3,13,17.7c3,2.4,7.4,4.8,11.4,2.7c0.6-0.3,1.2-0.7,1.8-1.2c0.5-0.5,1.1-1.1,1.6-1.8
							c5.6-7.3,8.9-16.9,9.7-28.3c0-0.5,0.1-1,0.1-1.6l0.1-1.2c0-1.7,0.1-3.3,0-4.9l-0.1-2.6c-0.2-3.8-0.6-8.6-2.8-12.9
							c-0.9-1.7-2-3.3-3.4-4.6c-3.6-3.7-8.6-5.9-13.8-6.1c-5.1-0.3-9.9,1.8-14.2,6.1c-3.5,3.4-5.3,7.1-5.3,7.1
							c-1.1,1.7-1.8,3.1-2.4,4.6c-2.1,5.4-1.3,10,0.3,17.8c0,0.1,0,0.2,0,0.3c0,0.6-0.5,1.1-1.1,1.1c-0.6,0-1.1-0.5-1.1-1
							c-1.5-7.2-2.6-12.8-0.1-19c0.6-1.6,1.4-3.2,2.5-4.9c0-0.1,1.9-3.9,5.7-7.6c4.6-4.6,10.2-6.9,15.8-6.7
							c5.7,0.2,11.3,2.7,15.3,6.7c1.5,1.5,2.8,3.3,3.8,5.2c2.3,4.6,2.8,9.8,3,13.8l0.1,2.7c0,1.7,0,3.4,0,5.1l-0.1,1.2
							c0,0.5-0.1,1-0.1,1.6c-0.9,11.9-4.3,21.8-10.2,29.5c-0.6,0.8-1.2,1.5-1.9,2.1c-0.8,0.7-1.5,1.2-2.3,1.5
							C70.9,99.6,69.4,100,67.9,100z"/>
					</g>
					<g>
						<path class="st1" d="M65.4,184.9c0,0-0.1,0-0.1,0c-0.6-0.1-1-0.6-1-1.2c0-0.2,0-0.4,0-0.6c0.2-4.1,0.4-8,0.5-11.8
							c0.3-8.9,0.4-17.4,0.5-25.7c0.1-9.2,0.3-18.6,0.6-28.6c0.1-2.9,0.2-5.9,0.4-9c0-0.4,0.3-0.8,0.7-1c3.1-1.1,6-3,6-3.7
							c0-1.6-1.5-3.7-2.1-4.4c-0.4-0.5-0.3-1.2,0.1-1.6c0.5-0.4,1.2-0.3,1.6,0.1c0.3,0.3,2.6,3.2,2.6,5.8c0,2.5-4.5,4.7-6.8,5.6
							c-0.1,2.8-0.3,5.5-0.4,8.2c-0.4,9.9-0.5,19.4-0.6,28.5c-0.1,8.3-0.2,16.9-0.5,25.8c-0.1,3.9-0.3,7.8-0.5,11.8
							c0,0.2,0,0.5-0.1,0.9C66.4,184.5,66,184.9,65.4,184.9z"/>
					</g>
					<g>
						<path class="st1" d="M65.8,184.2c-0.4,0-0.8-0.2-1-0.6c-0.3-0.5,0-1.2,0.5-1.5c4.1-2,8.2-3.8,12.4-5.2c1.4-0.5,2.8-1,4.2-1.4
							l0.7-0.2c0.6-0.2,1.2,0.2,1.4,0.8c0.2,0.6-0.2,1.2-0.8,1.4l-0.6,0.2c-1.4,0.4-2.8,0.9-4.1,1.4c-4,1.4-8.1,3.2-12.1,5.1
							C66.1,184.1,66,184.2,65.8,184.2z"/>
					</g>
					<g>
						<path class="st1" d="M43.8,69c-0.6,0-1.1-0.5-1.1-1.1c0-4.6,4.9-7.5,9.4-7.8c0.2,0,0.4,0,0.6-0.1c0.1,0,0.4-0.1,0.5-0.1
							l0.5-0.1c0.3-0.1,0.6-0.2,0.8-0.2c0.5-0.2,1.2,0.1,1.4,0.7c0.2,0.6-0.1,1.2-0.7,1.4c-0.3,0.1-0.6,0.2-1,0.3c0,0-0.2,0-0.3,0
							l-0.4,0.1c-0.1,0-0.2,0-0.3,0c-0.2,0-0.3,0.1-0.5,0.1c-0.1,0-0.4,0.1-0.6,0.1c-3.6,0.3-7.4,2.5-7.4,5.6
							C44.9,68.5,44.4,69,43.8,69z"/>
					</g>
					<g>
						<path class="st1" d="M55.3,61.7c-0.6,0-1.1-0.5-1.1-1.1c0-0.4,0.2-0.7,0.5-0.9c0.1,0,0.1-0.1,0.2-0.1l0.7-0.4c0,0,0.1,0,0.1,0
							l1.5-0.7c0.4-0.2,0.8-0.4,1.2-0.6c0.6-0.3,1.2-0.6,1.7-0.8l1.4-0.5c3.9-1.5,8.7-3.3,10.4-6.5c0.8-1.6,1.6-3.2,2.4-4.8
							c1.2-2.6,2.4-5.4,3.5-8.3c0.2-0.6,0.8-0.9,1.4-0.6c0.6,0.2,0.9,0.9,0.6,1.4c-1.1,3-2.3,5.8-3.6,8.5c-0.8,1.6-1.6,3.3-2.4,4.9
							c-2.1,4-7.3,5.9-11.6,7.5l-1.4,0.5c-0.5,0.2-1,0.4-1.6,0.7c-0.4,0.2-0.8,0.4-1.1,0.5l-1.5,0.7c0,0-0.1,0-0.1,0.1L56,61.5
							c-0.2,0.2-0.3,0.2-0.5,0.2C55.4,61.7,55.4,61.7,55.3,61.7z"/>
					</g>
					<g>
						<path class="st1" d="M40.5,49.3c-0.1,0-0.2,0-0.3,0c-4.3-1.3-7.9-4.1-9.7-7.6c-2.1-3.9-2-8.9,0.3-12.4
							c2.5-3.8,7.6-5.6,11.7-3.9c3.3,1.3,8.1,6,8.3,11.6l-2.2,0.1V37c-0.2-4.6-4.5-8.6-6.9-9.6c-3.1-1.3-7,0.1-9,3.1
							c-1.8,2.8-1.9,6.9-0.2,10.1c1.6,3,4.7,5.4,8.4,6.5c0.6,0.2,0.9,0.8,0.7,1.4C41.5,49,41,49.3,40.5,49.3z"/>
					</g>
					<g>
						<path class="st1" d="M34.3,176c-0.3,0-0.5-0.1-0.8-0.3c-0.3-0.2-0.4-0.6-0.3-0.9l0.1-0.5c2.3-23,3.6-35.7,8.3-58.4
							c1.2-5.6,1.9-9,7.4-11.1c0.3-0.1,0.5-0.2,0.7-0.3c1.6-3.1,5.3-9.5,8.1-9.5c0.4,0,1.5,0.1,2.1,1.5c0.1,0.2,0.1,0.4,0.1,0.6
							l-1.3,9.2c-0.1,2.1-0.8,4.5-2.2,7.4c-0.7,1.4-1.4,2.7-2.2,4.1c-1.8,3.2-3.4,6.2-3.6,8.9c-0.1,1.8,0.6,3.6,1.3,5.5
							c0.7,1.8,1.3,3.6,1.4,5.5c0.3,8.4-0.1,13.2-0.6,19.7c-0.3,3.4-0.5,7.3-0.8,12.5c0,0.6-0.5,1-1.2,1c-0.6,0-1.1-0.5-1-1.2
							c0.3-5.2,0.5-9.1,0.8-12.6c0.5-6.5,0.8-11.2,0.6-19.5c0-1.5-0.6-3.1-1.3-4.8c-0.8-2.1-1.6-4.2-1.4-6.4c0.2-3.2,2-6.4,3.9-9.8
							c0.7-1.3,1.5-2.6,2.1-4c1.3-2.6,1.9-4.7,2-6.6l1.3-8.7c-1.2,0.2-4,4.2-6.2,8.5c-0.1,0.3-0.4,0.5-0.7,0.6
							c-0.3,0.1-0.6,0.2-0.9,0.3c-4.5,1.7-5,4-6.1,9.6c-4.7,22.3-6,34.9-8.2,57.3l4.1-0.7c0.7,0,1.2,0.3,1.3,0.9
							c0.1,0.6-0.3,1.2-0.9,1.3l-5.6,1C34.4,176,34.4,176,34.3,176z"/>
					</g>
					<g>
						<path class="st1" d="M40.1,181.9c-0.5,0-1-0.4-1.1-0.9c-0.1-0.6,0.3-1.2,0.9-1.3l0.3-0.1c0.2,0,0.4-0.1,0.6-0.1
							c1-0.2,1.9-0.3,2.7-0.3c1,0,1.9,0,2.9,0c0.8,0,1.8,0,2.9,0c0,0,0,0,0,0c0.6,0,1.1,0.5,1.1,1.1c0,0.6-0.5,1.1-1.1,1.1
							c-1.1,0-2.1,0-3,0c-1,0-1.8,0-2.7,0c-0.8,0.1-1.6,0.1-2.5,0.3c-0.2,0-0.3,0.1-0.5,0.1l-0.4,0.1
							C40.2,181.9,40.1,181.9,40.1,181.9z"/>
					</g>
					<g>
						<path class="st1" d="M39.9,181.2c-0.6,0.1-1.1-0.5-1.1-1.1v0c0-1.8,0-3.6,0-5.3c0-0.3,0-0.5,0-0.8
							c0.4-22.8,2.4-43.2,10.7-68.5c0.2-0.6,0.8-0.9,1.4-0.7c0.6,0.2,0.9,0.8,0.7,1.4c-8.3,25-10.2,45.2-10.6,67.9
							c0,0.2,0,0.5,0,0.8c0,1.7,0,3.5,0,5.3C41,180.7,40.5,181.2,39.9,181.2z"/>
					</g>
					<g>
						<path class="st1" d="M45,274.3c0,0-0.1,0-0.1,0c-0.6-0.1-1-0.6-1-1.2c1.8-14,3.7-26.2,5.8-37.3c0.9-5,1.8-9.4,2.7-13.6
							c2.4-11.8,5.2-23.1,8.4-34.7c0.2-0.6,0.8-0.9,1.4-0.8c0.6,0.2,0.9,0.8,0.8,1.4c-3.2,11.5-6,22.8-8.4,34.5
							c-0.9,4.2-1.8,8.6-2.6,13.5c-2.1,11.1-4,23.2-5.8,37.2C46.1,273.9,45.6,274.3,45,274.3z"/>
					</g>
					<g>
						<path class="st1" d="M46.8,286.9c-5.7,0-12.3-2.3-16-5.7c-4.4-4.2-6.9-10.3-6.5-16.3c0-0.6,0.5-1,1.1-1c0,0,0,0,0.1,0
							c0.6,0,1.1,0.6,1,1.2c-0.3,5.4,1.9,10.9,5.8,14.6c3.8,3.5,10.9,5.7,16.6,5c0.6,0,1.2,0.5,1.2,1.1c0,0.6-0.4,1.1-1,1.1
							C48.4,286.9,47.6,286.9,46.8,286.9z"/>
					</g>
					<g>
						<path class="st1" d="M50.7,293c-0.5,0-1-0.2-1.5-0.5c-1-0.8-1.5-2.2-1.6-3.1c-0.1-1.4,0-2.7,0.4-4c0.1-0.6,0.4-1.2,0.7-1.8
							c0.3-0.6,0.9-0.8,1.5-0.5c0.6,0.3,0.8,0.9,0.5,1.5c-0.2,0.5-0.4,1-0.5,1.4c-0.3,1.1-0.4,2.1-0.3,3.2c0.1,0.6,0.4,1.3,0.7,1.5
							c0.4,0.1,0.7-0.4,0.8-0.6c2-2.5,3.5-5.3,4.5-8.3c0.1-0.4,0.3-0.9,0.4-1.3c0.4-1.3,0.4-2.1,0-2.6c-0.2-0.2-0.6-0.4-0.7-0.4
							c-1.7-0.7-5-0.5-6.1-0.4c-0.2,0-0.3,0-0.5,0c-1.9-0.6-3.4-1.1-4.9-1.7c-6.8-2.5-13.2-5.8-19.1-9.7c-0.5-0.3-0.6-1-0.3-1.5
							c0.3-0.5,1-0.7,1.5-0.3c5.8,3.8,12.1,7,18.7,9.5c1.5,0.6,3,1.1,4.5,1.6c1-0.1,4.7-0.4,7,0.5c0.5,0.2,1.1,0.5,1.5,1
							c1.3,1.6,0.7,3.9,0.5,4.6c-0.1,0.5-0.3,0.9-0.4,1.4c-1.1,3.2-2.7,6.2-4.8,8.9c-0.4,0.5-1,1.2-1.9,1.4
							C51.1,292.9,50.9,293,50.7,293z"/>
					</g>
					<g>
						<path class="st1" d="M55.9,277.9c-0.1,0-0.2,0-0.3,0c-0.6-0.2-0.9-0.7-0.8-1.3c0,0,0-0.2,0.1-0.2c2.8-11.4,5.7-23.3,8.8-36.5
							c1.6-7,3.2-14,4.7-21c0-0.1,0.1-0.2,0.1-0.3c3.1-14.1,5.9-27.4,8.6-40.5c0.1-0.6,0.8-0.9,1.3-0.9c0.6,0.1,1,0.7,0.9,1.3
							c-2.7,13.2-5.5,26.6-8.6,40.9c0,0.1,0,0.2-0.1,0.3c-1.5,6.9-3.1,13.9-4.7,20.8c-3.1,13.2-5.9,25.2-8.8,36.5
							c0,0-0.1,0.3-0.1,0.3C56.9,277.6,56.4,277.9,55.9,277.9z"/>
					</g>
					<g>
						<path class="st1" d="M52.7,223.3c-0.4,0-0.8-0.2-1-0.6c-4.4-8.3-5.6-20-3.9-35.8c0.2-2.3,0.5-4.6,0.9-6.8
							c0.5-3.1,1-6.1,1.4-8.9c0.1-0.3,0.1-0.4,0.1-0.6c0.1-0.6,0.7-1,1.3-0.9c0.6,0.1,1,0.7,0.9,1.3c0,0.2-0.1,0.4-0.1,0.7
							c-0.5,2.7-1,5.7-1.4,8.8c-0.3,2.2-0.6,4.4-0.9,6.7c-1.7,15.3-0.5,26.6,3.6,34.5c0.3,0.5,0.1,1.2-0.5,1.5
							C53.1,223.3,52.9,223.3,52.7,223.3z"/>
					</g>
					<g>
						<path class="st1" d="M81.2,265.4c-2.2,0-3.7-1.6-3.8-1.6c-0.1-0.1-0.2-0.3-0.3-0.5c-0.9-1.7-2.8-4.9-4.8-8.2
							c-3.6-5.9-7.4-12.1-8.1-14.6c-0.2-0.6,0.2-1.2,0.8-1.4c0.6-0.1,1.2,0.2,1.4,0.8c0.6,2.2,4.6,8.8,7.9,14.1
							c2.1,3.5,4,6.5,4.8,8.2l-0.9,0.8l1-0.5c0,0,0,0,0,0c0,0,1.3,1.2,3,0.6c1.4-0.5,2-1.1,2.2-1.4c0,0,0,0,0-0.1
							c-2.8-14.2-11.7-33.6-15.5-42c-0.3-0.6,0-1.2,0.6-1.5c0.5-0.3,1.2,0,1.5,0.5c3.8,8.4,12.7,28,15.6,42.3
							c0.1,0.2,0.1,0.5,0.1,0.8c0,0.2,0,0.3-0.1,0.5c-0.1,0.3-0.8,1.8-3.7,2.8C82.4,265.3,81.8,265.4,81.2,265.4z"/>
					</g>
					<g>
						<path class="st1" d="M59.1,173c-1.9,0-3.8-0.1-5.8-0.2l-1.9-0.1c-0.6,0-1.1-0.6-1-1.2c0-0.6,0.6-1,1.2-1l1.9,0.1
							c4.1,0.2,7.9,0.5,11.9-0.3c0.6-0.1,1.2,0.3,1.3,0.9c0.1,0.6-0.3,1.2-0.9,1.3C63.5,172.8,61.3,173,59.1,173z"/>
					</g>
					<g>
						<path class="st1" d="M75.4,77.9c-0.4,0-0.8-0.2-1-0.7c-0.2-0.6-0.5-1.1-0.7-1.6c-1.3-2.7-2.4-5-1.8-9.2
							c0.1-0.6,0.6-1.1,1.2-0.9c0.6,0.1,1,0.6,0.9,1.2c-0.5,3.6,0.4,5.4,1.6,7.9c0.2,0.5,0.5,1.1,0.8,1.6c0.2,0.6,0,1.2-0.6,1.5
							C75.7,77.9,75.5,77.9,75.4,77.9z"/>
					</g>
					<g>
						<path class="st1" d="M70.5,79.4c-0.5,0-0.9,0-1.3,0c-0.6,0-1.1-0.6-1.1-1.2c0-0.6,0.6-1,1.2-1.1c2.5,0.1,4.1,0,5.6-1.2
							c0.5-0.4,1.2-0.3,1.6,0.2c0.4,0.5,0.3,1.2-0.2,1.6C74.4,79.1,72.4,79.4,70.5,79.4z"/>
					</g>
					<g>
						<path class="st1" d="M68.1,88.6c-0.6,0-1.3-0.1-1.9-0.3c-2.5-0.8-4.4-3.4-4.3-6.1c0-0.6,0.5-1.1,1.1-1.1c0,0,0,0,0,0
							c0.6,0,1.1,0.5,1.1,1.1c0,1.7,1.2,3.4,2.8,4c1.6,0.5,3.6-0.1,4.7-1.5c0.4-0.5,1.1-0.6,1.5-0.2c0.5,0.4,0.6,1.1,0.2,1.5
							C72.1,87.7,70.1,88.6,68.1,88.6z"/>
					</g>
					<g>
						<path class="st1" d="M150.3,109.6c-0.2,0-0.5-0.1-0.7-0.2c-1.8-1.4-3.8-2.3-6.1-2.9c-0.6-0.1-1-0.8-0.8-1.3
							c0.1-0.6,0.7-0.9,1.3-0.8c2.5,0.6,4.8,1.7,6.9,3.3c0.5,0.4,0.6,1.1,0.2,1.6C151,109.5,150.7,109.6,150.3,109.6z"/>
					</g>
					<g>
						<path class="st1" d="M111.9,211.8c-0.4,0-0.7-0.2-0.9-0.5c-3.3-5.1-7.2-17.1-6.9-23.2c0-0.6,0.6-1.1,1.2-1.1
							c0.6,0,1.1,0.5,1.1,1.2c-0.2,5.5,3.6,17.2,6.6,21.9c0.3,0.5,0.2,1.2-0.3,1.5C112.4,211.7,112.2,211.8,111.9,211.8z"/>
					</g>
					<g>
						<path class="st1" d="M139.8,184.1c-1.6,0-3.2-0.4-4.7-0.8c-0.9-0.2-2.1-0.6-3.1-1.4c-2.3-1.9-2.2-5.1-1.8-8
							c0.3-2,0.5-4.1,0.8-6.1c0.1-0.6,0.5-1,1.1-1l12.1,0.5c0.6,0,1.1,0.5,1.1,1.1c0,0.6-0.5,1.1-1.1,1.1c0,0,0,0,0,0l-11.1-0.5
							c-0.2,1.7-0.5,3.4-0.7,5.1c-0.3,2.3-0.5,4.8,1,6c0.6,0.5,1.4,0.7,2.3,1c1.8,0.5,3.6,0.9,5.4,0.6c1.4-0.3,3.1-1.2,3.5-2.8
							c0.1-0.6,0.7-1,1.3-0.8c0.6,0.1,1,0.7,0.8,1.3c-0.5,2.2-2.6,4-5.2,4.5C141,184.1,140.4,184.1,139.8,184.1z"/>
					</g>
					<g>
						<path class="st1" d="M138.9,221.3c-0.1,0-0.2,0-0.3,0c-0.4-0.1-0.7-0.5-0.8-0.9c0-0.2,0-0.4,0-0.6c0,0,0-0.1-0.1-0.3
							c-0.1-0.3-0.1-0.6-0.1-0.8c-0.3-3.8-0.5-8.2,0.9-12.4c0.7-2.1,1.8-4,3.2-5.6c2.1-2.3,4.6-3.7,7.2-4c0.7-0.1,1.2,0.4,1.2,1
							c0.1,0.6-0.4,1.2-1,1.2c-2.7,0.3-4.7,2-5.8,3.3c-1.2,1.4-2.2,3-2.7,4.8c-1.2,3.8-1.1,8.1-0.8,11.8c0.4,0.7,0.4,1.6-0.1,2.2
							C139.5,221.2,139.2,221.3,138.9,221.3z"/>
					</g>
					<g>
						<path class="st1" d="M141.7,222.8c-1.1,0-2.2-0.4-3.2-1.2c-0.5-0.4-0.5-1.1-0.2-1.6c0.4-0.5,1.1-0.5,1.6-0.2
							c0.8,0.7,1.8,0.9,2.5,0.5c0.5-0.3,0.7-0.8,0.7-1.5c0-0.6,0.4-1.1,1-1.2c0.7,0,1.1,0.4,1.2,1c0.1,1.6-0.6,3-1.9,3.6
							C142.9,222.6,142.3,222.8,141.7,222.8z"/>
					</g>
					<g>
						<path class="st1" d="M144.6,219.1c-0.5,0-1-0.4-1.1-0.9c-0.1-0.8-0.2-1.6-0.2-2.5c-0.1-2.3,0-4.5,0.4-6.4
							c0.7-3.1,2.6-5.6,5-6.6c0.2-0.1,0.4-0.2,0.6-0.2c0.6-0.2,1.2,0.2,1.4,0.7c0.2,0.6-0.2,1.2-0.7,1.4c-0.1,0-0.3,0.1-0.4,0.1
							c-2.1,0.8-3.3,3.1-3.7,5c-0.4,1.7-0.5,3.8-0.4,5.9c0,0.8,0.1,1.5,0.2,2.2c0.1,0.6-0.3,1.2-0.9,1.3
							C144.7,219.1,144.7,219.1,144.6,219.1z"/>
					</g>
					<g>
						<path class="st1" d="M122.8,232.3c-0.6,0-1.1-0.5-1.1-1.1c0-0.5,0.3-0.9,0.7-1c1.6-1.8,3.3-3.4,5.1-4.9c3-2.5,6.3-4.7,9.7-6.4
							c0.6-0.2,1.2,0,1.5,0.5c0.3,0.5,0,1.2-0.5,1.5c-3.2,1.6-6.3,3.6-9.2,6.1c-1.8,1.5-3.5,3.2-5,4.9
							C123.7,232.1,123.2,232.3,122.8,232.3z M122.3,230.4C122.2,230.4,122.2,230.4,122.3,230.4
							C122.2,230.4,122.2,230.4,122.3,230.4z"/>
					</g>
					<g>
						<path class="st1" d="M125.9,280.3c-0.6,0-1-0.1-1.3-0.2c-2.6,0.1-4.4-2.1-5.1-5.9c-1-6-1.5-12-1.5-18c0-3.4,0.1-6.8,0.4-10
							l0.1-1c0.5-6.4,1.3-12.7,4-14.8c1.4-1.1,3.8-1.6,7.3,2.7c1.2,1.5,1.8,3.3,2.3,4.9c2.5,8.6,0.7,34-0.5,36.7
							c-1.3,2.9-2.7,4.6-4.3,5.2h0C126.8,280.2,126.4,280.3,125.9,280.3z M126.9,279L126.9,279L126.9,279z M124.4,277.8
							c0.3,0,0.5,0.1,0.7,0.1c0.4,0.1,0.8,0.2,1.3,0c0.7-0.3,1.8-1.2,3.1-4.1c0.9-2.1,2.7-27.1,0.4-35.2c-0.4-1.5-1-3-1.9-4.2
							c-1.9-2.3-3.3-3.1-4.2-2.4c-2.3,1.8-2.9,10.1-3.2,13.2l-0.1,1c-0.3,3.2-0.4,6.5-0.4,9.8c0,5.8,0.5,11.7,1.5,17.6
							c0.1,0.7,0.8,4,2.6,4C124.4,277.8,124.4,277.8,124.4,277.8z"/>
					</g>
					<g>
						<path class="st1" d="M145.7,216.7c-0.5,0-0.9-0.3-1-0.7c-0.2-0.6,0.1-1.2,0.7-1.4c5.2-1.8,7.5-2.8,9.7-3.8
							c2.3-1,4.6-2.1,10-3.9c0.6-0.2,1.2,0.1,1.4,0.7c0.2,0.6-0.1,1.2-0.7,1.4c-5.3,1.8-7.5,2.8-9.8,3.8c-2.3,1-4.6,2.1-9.9,3.9
							C145.9,216.7,145.8,216.7,145.7,216.7z"/>
					</g>
					<g>
						<path class="st1" d="M168.2,212.9c-1.7,0-3-1.5-3.2-1.7c-0.3-0.3-0.3-0.8-0.2-1.1c0.2-0.4,0.1-1.2-0.1-1.9
							c-0.6-1.9-2.2-3.7-3.2-3.7c-0.6,0-1.2-0.5-1.1-1.1c0-0.6,0.4-1.1,1-1.1c0,0,0.3,0,0.4,0c2.2,0.1,4.3,2.8,5.1,5.2
							c0.3,1,0.4,1.9,0.3,2.7c0.4,0.3,0.9,0.6,1.2,0.5c0.4-0.1,1-0.9,1.4-2.8c0.2-0.6,0.2-1.3,0.1-2.1c-0.1-0.9-0.2-1.8-0.4-2.6
							l-0.1-0.8c-0.2-1.3-0.6-2.1-1.1-2.7c-0.4-0.5-1.3-0.8-1.8-0.5c-0.5,0.3-1.2,0.1-1.5-0.4c-0.3-0.5-0.1-1.2,0.4-1.5
							c1.6-0.9,3.5-0.2,4.6,1c1,1.2,1.4,2.7,1.6,3.8l0.1,0.8c0.2,0.9,0.3,1.9,0.4,2.9c0.1,1.1,0,1.9-0.2,2.7c-0.6,2.6-1.5,4.1-3,4.4
							C168.6,212.9,168.4,212.9,168.2,212.9z"/>
					</g>
					<g>
						<path class="st1" d="M121.6,81c-0.1,0-0.2,0-0.2,0c-2.5-0.6-4.9-1.6-7-2.9c-0.4-0.3-0.6-0.8-0.5-1.2c1-3.8,2.9-7.5,5.4-10.5
							c0.4-0.5,1.1-0.5,1.6-0.1c0.5,0.4,0.5,1.1,0.1,1.6c-2.1,2.6-3.8,5.6-4.8,8.9c1.8,1,3.7,1.8,5.6,2.2c0.6,0.1,1,0.7,0.8,1.3
							C122.6,80.7,122.1,81,121.6,81z"/>
					</g>
					<g>
						<path class="st1" d="M129.8,71.8c-0.2,0-0.5,0-0.7,0c-0.7-0.1-1.4-0.3-2-0.7c0,0-0.1,0-0.1-0.1c-1.8-1.1-3-3.4-3.2-5.9
							c-0.3-2.9,0.7-5.9,2.6-8.2c0-0.1,0.1-0.1,0.1-0.1c0.1-0.2,0.3-0.4,0.5-0.5c2.7-1.2,6.1-0.1,7.9,2.4c1.6,2.2,2,5.3,1,8.1
							C135.1,69.3,132.7,71.8,129.8,71.8z M128.1,69c0,0,0.1,0,0.1,0.1c0.4,0.2,0.7,0.4,1.2,0.5c2,0.2,3.8-1.6,4.5-3.5
							c0.7-2.2,0.5-4.5-0.7-6.1c-1.2-1.6-3.4-2.4-5.1-1.7c0,0,0,0-0.1,0.1c-1.5,1.8-2.3,4.2-2.1,6.6C126.1,66.6,127,68.2,128.1,69z"
							/>
					</g>
					<g>
						<path class="st1" d="M127.6,71.1c-0.2,0-0.4,0-0.5-0.1c-0.5-0.3-0.7-1-0.4-1.5c1.7-2.9,2.1-6.6,1.1-9.8
							c-0.2-0.7-0.6-1.1-0.8-1.2c-0.6,0-1.1-0.5-1.1-1.1c0-0.6,0.5-1.1,1.1-1.1c0.1,0,0.3,0,0.4,0c0.1,0,0.3,0.1,0.4,0.1
							c1,0.3,1.7,1.2,2.2,2.6c1.1,3.9,0.7,8.1-1.3,11.5C128.4,70.9,128,71.1,127.6,71.1z"/>
					</g>
					<g>
						<path class="st1" d="M114.7,68.3c-0.2,0-0.5,0-0.7,0c-0.8-0.1-1.5-0.4-2.1-0.8c-1.8-1.1-3-3.4-3.2-5.8
							c-0.3-2.9,0.7-5.9,2.6-8.2c0,0,0.1-0.1,0.1-0.1c0.1-0.2,0.3-0.4,0.6-0.5c2.7-1.1,6.1-0.1,7.9,2.4c1.6,2.2,2,5.3,1,8.1
							C120,65.9,117.6,68.3,114.7,68.3z M113.1,54.7c0,0-0.1,0.1-0.1,0.1c-1.5,1.8-2.3,4.2-2.1,6.6c0.1,1.8,1,3.4,2.2,4.2
							c0.4,0.3,0.8,0.4,1.2,0.5c1.9,0.2,3.8-1.6,4.4-3.5c0.8-2.2,0.5-4.5-0.7-6.1C116.9,54.9,114.7,54.2,113.1,54.7z"/>
					</g>
					<g>
						<path class="st1" d="M112.6,67.7c-0.2,0-0.4,0-0.6-0.1c-0.5-0.3-0.7-1-0.4-1.5c1.7-2.9,2.1-6.6,1.1-9.8
							c-0.2-0.7-0.5-1.2-0.8-1.2c-0.6,0-1.1-0.5-1.1-1.1c0-0.6,0.5-1.1,1.1-1.1c0.1,0,0.3,0,0.4,0.1c0.1,0,0.3,0,0.3,0.1
							c1.3,0.5,1.9,1.9,2.2,2.7c1.1,3.8,0.6,8.1-1.3,11.5C113.3,67.5,112.9,67.7,112.6,67.7z"/>
					</g>
					<g>
						<path class="st1" d="M102.4,299.3c-0.5,0-1-0.3-1.1-0.9c-2.1-9.3-9.7-16.4-16.7-22.3c-2.2-1.9-4.8-3.9-7.6-3.9
							c0,0-0.1,0-0.1,0c-0.6,0-1.1-0.5-1.1-1.1c0-0.7,0.5-1.1,1.2-1.1c3.5,0,6.5,2.3,9,4.4c7.2,6.1,15.1,13.5,17.4,23.5
							c0.1,0.6-0.2,1.2-0.8,1.3C102.5,299.3,102.5,299.3,102.4,299.3z"/>
					</g>
					<g>
						<path class="st1" d="M126,280.1c-0.3,0-0.6,0-0.9,0c-0.6,0-1.1-0.5-1.1-1.2c0-0.6,0.5-1.1,1.1-1.1c0,0,0,0,0,0
							c0.3,0,0.4,0,0.8,0c0.3,0,0.6,0,0.9,0c16.7-1,54.8-29.4,58.2-32c1.5-3.8,2.5-7.7,2.9-11.7c0.6-5.5,0.2-11.4-1.3-18.6
							c-0.9-4.6-2.1-9.3-5.6-11.1c-1.6-0.8-6.5,0.8-9.4,2.2c-0.6,0.3-1.2,0-1.5-0.5c-0.3-0.5,0-1.2,0.5-1.5
							c1.3-0.6,8.3-3.8,11.4-2.1c4.4,2.3,5.8,7.8,6.7,12.7c1.5,7.4,1.9,13.5,1.3,19.3c-0.4,4.3-1.5,8.5-3.1,12.6
							c-0.1,0.2-0.2,0.3-0.4,0.5c-1.7,1.3-41.6,31.5-59.6,32.6C126.6,280.1,126.3,280.1,126,280.1z"/>
					</g>
					<g>
						<path class="st1" d="M14.2,248.3c-2.9,0-5.4-2.2-6.4-4.7c-1.2-2.7-1.1-5.6-1-8.4c0.3-5.6,0.5-11.1,0.8-16.7l0.8-16.3
							c0.1-1.9,1.6-6.5,4.1-8.4c1.2-0.9,2.4-0.9,3.1-0.7c0,0,0,0,0,0c0.8,0.2,1.6,0.8,2.3,1.6c1.2,1.4,1.3,3.3,1.4,5.1
							c0.4,14.9,0.1,29.8-0.8,44.5c-0.1,0.7-0.1,1.2-0.4,1.7c-0.2,0.5-0.5,0.8-0.8,1.1c-0.6,0.5-1.2,0.8-1.9,0.9
							C15,248.3,14.6,248.3,14.2,248.3z M14.7,195.4c-0.2,0-0.5,0.1-0.9,0.4c-1.8,1.3-3.2,5.1-3.2,6.7l-0.8,16.3
							c-0.3,5.5-0.5,11.1-0.8,16.6c-0.1,2.6-0.2,5.3,0.8,7.5c0.9,2,3,3.7,5.1,3.3c0.4-0.1,0.7-0.2,0.9-0.4c0.1-0.1,0.2-0.2,0.2-0.3
							c0.1-0.2,0.1-0.5,0.2-0.8c0.9-14.8,1.2-29.7,0.8-44.5c0-1.4-0.1-2.8-0.9-3.7c-0.4-0.5-0.8-0.8-1.2-0.9
							C14.9,195.4,14.8,195.4,14.7,195.4z"/>
					</g>
					<g>
						<path class="st1" d="M16.6,248.1c-0.1,0-0.2,0-0.3,0c-0.3-0.1-0.7-0.3-0.9-0.6c-0.3-0.5-0.1-1.2,0.4-1.5
							c0.3-0.2,0.7-0.2,1-0.1c1,0,6.7-1.7,7.4-1.9c10.3-3.7,15.6-5.7,24.5-9.4c0.5-0.2,1.2,0,1.4,0.6c0.2,0.6,0,1.2-0.6,1.4
							c-8.9,3.7-14.3,5.6-24.6,9.4C24.9,246.1,18.6,248.1,16.6,248.1z"/>
					</g>
					<g>
						<path class="st1" d="M15.2,195.4c-0.5,0-0.9-0.3-1-0.8c-0.2-0.6,0.1-1.2,0.7-1.4c3.6-1.2,5.4-1.5,7.2-1.8
							c1.8-0.3,3.5-0.6,6.9-1.7c0.6-0.2,1.2,0.1,1.4,0.7c0.2,0.6-0.1,1.2-0.7,1.4c-3.6,1.2-5.4,1.5-7.2,1.8
							c-1.8,0.3-3.5,0.6-6.9,1.7C15.5,195.4,15.4,195.4,15.2,195.4z"/>
					</g>
					<g>
						<path class="st1" d="M82.2,178.7c-0.6,0-1.1-0.5-1.1-1.1v-1.1c0.5-20.8-1.3-41.6-5.3-61.9c-0.1-0.6,0.3-1.2,0.9-1.3
							c0.6-0.1,1.2,0.3,1.3,0.9c4,20.5,5.8,41.5,5.4,62.4v1C83.3,178.2,82.8,178.7,82.2,178.7z"/>
					</g>
					<g>
						<path class="st1" d="M91.3,179.9c-3,0-6.2-0.6-9.1-1.7c-0.6-0.2-0.9-0.9-0.6-1.4c0.2-0.6,0.8-0.9,1.4-0.6
							c2.9,1.1,6.1,1.6,9.1,1.6c0.3,0,0.5,0,0.6,0l0.2,2.2c-0.4,0-0.6,0-0.9,0C91.8,179.9,91.6,179.9,91.3,179.9z"/>
					</g>
					<g>
						<path class="st1" d="M93.7,179.1C93.7,179.1,93.7,179.1,93.7,179.1c-0.7,0-1.1-0.6-1.1-1.2c0.3-5.4,0.6-10.8,0.9-16.2
							c0.1-2,0.2-3.9,0.3-5.9c0.4-7.2-0.4-17.1-2.4-29.3c-1.4-8.9-7.8-18.8-13.9-21.6c-0.4-0.2-0.7-0.6-0.6-1.1c0.2-1.9,0-4-0.3-4.4
							c-1.1-0.7-2.7-1.9-2.7-1.9l1.3-1.8c0,0,1.5,1.1,2.6,1.9c1.3,0.9,1.4,3.6,1.3,5.6c6.6,3.5,13,13.6,14.5,22.9
							c2,12.5,2.8,22.3,2.4,29.7c-0.1,2-0.2,3.9-0.3,5.9c-0.3,5.4-0.6,10.8-0.9,16.2C94.8,178.6,94.3,179.1,93.7,179.1z"/>
					</g>
					<g>
						<path class="st1" d="M29.5,191c-0.5,0-0.9-0.3-1.1-0.8c-0.3-1.2,0.2-2.8,0.9-4.3c-1.1,0-2.3-0.6-3.3-1.6
							c-0.9-0.8-0.6-2.1-0.4-2.8c0-0.2,0.1-0.3,0.1-0.4c0.3-1.7,1-3,2-4c2.4-2.5,6.8-3.7,12.3-3.4c0.6,0,1.1,0.5,1.1,1.1
							c0,0.6-0.4,1.1-1,1.1h-0.1c-4.9-0.2-8.7,0.7-10.7,2.8c-0.7,0.7-1.1,1.6-1.4,2.8c0,0.2-0.1,0.4-0.1,0.6
							c-0.1,0.2-0.2,0.7-0.1,0.8c1.4,1.3,2.4,1,3.2,0.4c0.6-1,1.9-2.8,3-3.5c0.5-0.3,1-0.2,1.4,0.2c0.4,0.4,0.4,1,0.1,1.4l-0.2,0.4
							c-0.6,0.9-1.4,2.2-2.6,3.1c-1.5,2.5-2,4.4-1.9,4.9c0.1,0.6-0.2,1.2-0.8,1.3C29.7,191,29.6,191,29.5,191z"/>
					</g>
					<g>
						<path class="st1" d="M32.7,192.9c-1.9,0-3.2-0.5-4-1.6c-0.1-0.2-0.3-0.4-0.4-0.6c-0.3-0.6,0-1.2,0.5-1.5
							c0.6-0.3,1.2,0,1.5,0.5c0,0.1,0.1,0.2,0.1,0.3c0.5,0.6,1.8,0.8,3.8,0.5l0.3-0.1c0-0.1-0.2-0.2-0.2-0.3c-0.2-1.9,0.6-4,2.1-5.8
							c0.1-0.1,0.2-0.3,0.4-0.4c0.4-0.4,1.2-0.5,1.6-0.1c0.5,0.4,0.5,1.1,0.1,1.5l-0.4,0.4c-1.2,1.4-1.7,2.9-1.6,4.3
							c0.1,0.6,0.1,1.2-0.3,1.7c-0.5,0.8-1.5,0.9-1.8,0.9C33.9,192.9,33.3,192.9,32.7,192.9z"/>
					</g>
					<g>
						<path class="st1" d="M35.5,191.5c-0.6,0-1.1-0.5-1.1-1.1c0-0.5,0.3-0.9,0.7-1c0,0,0,0,0,0l0,0c2.3-0.8,4.7-1.3,7-1.8
							c2.1-0.4,4.3-0.8,6.4-1.6c0.2-0.1,0.3-0.1,0.5-0.2c0.6-0.1,1.2,0.3,1.3,0.9c0.1,0.6-0.3,1.2-0.9,1.3c0,0-0.1,0.1-0.3,0.1
							c-2,0.7-4.3,1.2-6.5,1.6c-2.3,0.5-4.5,0.9-6.7,1.7c0,0,0,0,0,0C35.8,191.5,35.7,191.5,35.5,191.5z"/>
					</g>
					<g>
						<path class="st1" d="M78.8,172.4c-2.3,0-4.6-1.5-5.7-3.7c-1-1.9-1.2-4.3-0.6-6.8c0.2-0.6,0.7-0.9,1.4-0.8
							c0.6,0.2,0.9,0.8,0.8,1.4c-0.5,1.9-0.4,3.8,0.4,5.2c0.8,1.5,2.4,2.4,3.9,2.5c0.9,0,1.7-0.5,2.1-1.1c0.3-0.5,1-0.7,1.5-0.4
							c0.5,0.3,0.7,1,0.4,1.5c-0.7,1.3-2.3,2.2-3.9,2.3C79,172.4,78.9,172.4,78.8,172.4z"/>
					</g>
					<g>
						<path class="st1" d="M61.1,121.4c-0.6,0-1.2-0.1-1.8-0.2c-3.7-0.9-5.1-4.8-5.1-8c0-0.6,0.5-1.1,1.1-1.1c0,0,0,0,0,0
							c0.6,0,1.1,0.5,1.1,1.1c0,2.3,0.9,5.2,3.4,5.8c2.3,0.5,5-0.6,6.2-2.6c0.3-0.5,1.1-0.9,1.6-0.6c0.5,0.3,0.8,0.8,0.6,1.3
							c-0.1,0.1-0.2,0.3-0.3,0.5C66.6,120,63.9,121.4,61.1,121.4z"/>
					</g>
					<g>
						<path class="st1" d="M38.9,187.6c-0.7,0-1.2-0.2-1.7-0.6c-0.4-0.4-0.8-0.9-0.9-1.6c-0.1-0.3-0.1-0.7-0.1-1c0-0.2,0-0.4,0-0.5
							c-0.1-1.1-1-2.1-2.1-2.7c-0.5-0.2-1.1-0.4-1.6-0.3c-0.7,0-1.1-0.4-1.2-1c0-0.6,0.4-1.1,1-1.2c0.9,0,1.8,0.1,2.7,0.5
							c1.8,0.9,3.1,2.5,3.3,4.4c0,0.2,0,0.4,0.1,0.7c0,0.2,0,0.5,0.1,0.7c0,0.2,0.1,0.3,0.2,0.4c0.1,0.1,0.4,0.1,0.9,0
							c1.9-0.6,3.2-2.7,3-4.6c-0.1-0.6,0.4-1.1,1-1.2c0.5-0.1,1.1,0.4,1.2,1c0.3,3-1.6,6-4.4,6.9C39.8,187.5,39.4,187.6,38.9,187.6z
							"/>
					</g>
					<g>
						<path class="st1" d="M82.9,191.1c-0.3,0-0.6-0.1-0.8-0.4c-2.1-2.3-2.7-5.7-2.1-10.3c0.2-1.1,0.4-2.4,1.3-3.5
							c0.4-0.5,1.1-0.5,1.6-0.1c0.5,0.4,0.5,1.1,0.1,1.6c-0.5,0.6-0.7,1.5-0.8,2.3c-0.5,4,0,6.8,1.6,8.6c0.4,0.5,0.4,1.2-0.1,1.6
							C83.4,191,83.1,191.1,82.9,191.1z"/>
					</g>
					<g>
						<path class="st1" d="M84.4,196.1c-0.4,0-0.7-0.1-1.1-0.4c-0.8-0.6-1-1.9-1-2.2c0-1.2-0.1-2.4-0.1-3.6c0-1.9,0.2-3.8,0.4-5.5
							c0.1-0.6,0.7-1,1.2-1c0.6,0.1,1,0.6,1,1.2c-0.2,1.6-0.3,3.4-0.4,5.2c0,0.9,0,1.9,0.1,2.8c0.6-2.5,1.1-5.2,1.3-7.8
							c0-0.6,0.5-1,1.1-1c0,0,0.1,0,0.1,0c0.6,0,1.1,0.6,1,1.2c-0.2,3.1-0.8,6.1-1.6,9.1c-0.1,0.3-0.2,0.6-0.4,0.9
							c-0.3,0.5-0.7,0.8-1.2,0.9C84.6,196.1,84.5,196.1,84.4,196.1z M84.7,194L84.7,194L84.7,194z"/>
					</g>
					<g>
						<path class="st1" d="M85.8,196.5c-0.2,0-0.4,0-0.6-0.1c-0.5-0.1-0.8-0.5-0.8-1l0-0.8l1.4-0.1l0-0.2c0.1,0,0.2,0,0.3-0.1
							c0.1-0.1,0.4-0.4,0.7-1.1c1.1-2.3,1.6-4.9,1.6-7.5c0-0.6,0.5-1.1,1.1-1.1c0.6,0.1,1.1,0.5,1.1,1.1c0.1,2.9-0.6,5.8-1.8,8.4
							c-0.4,0.9-0.9,1.5-1.4,1.9C86.8,196.4,86.2,196.5,85.8,196.5z"/>
					</g>
					<g>
						<path class="st1" d="M87.4,196.3c-0.6,0-1-0.4-1.1-1c-0.1-0.6,0.4-1.1,1-1.2c0.9-0.1,1.7-0.8,2.2-1.9c0.5-1.1,0.6-2.5,0.7-3.7
							c0.1-1.8,0.3-3.5,0.5-5.3l0.4-4.6c0-0.2,0-0.3,0.1-0.4c0.1-0.6,0.7-1,1.3-0.8c0.6,0.1,1,0.7,0.8,1.3l-0.4,4.8
							c-0.2,1.8-0.3,3.5-0.4,5.3c-0.1,1.4-0.3,3-0.9,4.5c-0.8,1.8-2.4,3-4,3.1C87.4,196.3,87.4,196.3,87.4,196.3z"/>
					</g>
					<g>
						<path class="st1" d="M44.7,78.2c-1.1,0-2.3-0.5-3.2-1.3c-1.1-1-1.8-2.3-2.3-3.5c-0.4-0.9-0.9-1.9-1-3.1
							c-0.1-1.5,0.5-2.8,1.6-3.5c0.7-0.4,1.5-0.6,2.3-0.4c0.5,0.1,1,0.3,1.5,0.6c0.7,0.5,1.2,1,1.6,1.5c0.3,0.5,0.2,1.2-0.4,1.5
							c-0.5,0.3-1.2,0.2-1.5-0.4c-0.2-0.3-0.4-0.5-0.8-0.8c-0.2-0.1-0.5-0.2-0.7-0.3c-0.3-0.1-0.6,0-0.7,0.1
							c-0.4,0.2-0.6,0.8-0.6,1.5c0,0.7,0.4,1.4,0.8,2.2c0.5,1.1,1,2.1,1.8,2.8c0.7,0.6,1.5,1,2.3,0.6c0.6-0.2,1.2,0.1,1.4,0.6
							c0.2,0.6-0.1,1.2-0.6,1.4C45.6,78.1,45.1,78.2,44.7,78.2z"/>
					</g>
					<g>
						<path class="st1" d="M85.3,56.4c-0.1,0-0.2,0-0.3,0C79.9,55,75.8,51,74.2,46c0,0-0.1-0.3-0.1-0.5c-0.1-0.6,0.4-1.2,1-1.2
							c0.6-0.1,1.1,0.4,1.2,1c1.5,4.3,5.1,7.8,9.3,8.9c0.6,0.2,0.9,0.8,0.8,1.4C86.2,56.1,85.8,56.4,85.3,56.4z M76.3,45.3
							L76.3,45.3L76.3,45.3z M76.2,45.2C76.2,45.2,76.2,45.3,76.2,45.2C76.3,45.3,76.2,45.2,76.2,45.2z"/>
					</g>
					<g>
						<path class="st1" d="M70.7,284.7c-2.4,0-4.8-0.4-6.8-1.3c-0.3-0.2-0.6-0.5-0.6-0.8c-0.1-0.4,0.1-0.8,0.4-1
							c3.3-2.9,11.3-10.5,13.4-19.1c0.1-0.2,0.1-0.4,0.2-0.6l1.1,0.1l1,0.5c-0.1,0.2-0.1,0.5-0.2,0.7c-2,8.1-8.8,15.2-12.7,18.9
							c3.5,1,7.8,0.7,11-0.9c0.7-0.3,1.7,0.2,1.7,1c0,0.5-0.3,0.9-0.8,1.1C76.1,284.1,73.4,284.7,70.7,284.7z"/>
					</g>
					<g>
						<path class="st1" d="M89.3,272.8c-0.1,0-0.2,0-0.3,0c-0.6-0.2-0.9-0.8-0.8-1.4c0.6-2.2,0.3-5.2-0.7-7.1
							c-0.6-1.1-1.4-1.7-2.3-2l0.2-1.1l0.3-1.1c1.6,0.4,2.9,1.5,3.7,3.1c1.4,2.4,1.7,5.9,0.9,8.8C90.2,272.5,89.8,272.8,89.3,272.8z
							"/>
					</g>
					<g>
						<path class="st1" d="M62.9,68c-2.9,0-5.8-0.9-8.3-2.6c-0.5-0.4-1.2-0.9-1.7-1.7c-0.5-0.8-0.7-1.9-0.5-2.8c0-0.2,0-0.2,0.1-0.4
							l1,0.4l0.5,0.1l-0.5-0.1l1.1,0.1c0,0,0,0.1,0,0.1l0,0c0,0,0,0.1,0,0.1c0,0.5,0.1,1,0.2,1.2c0.3,0.4,0.7,0.8,1.1,1.1
							c2.6,1.9,6.1,2.6,9.3,2c1.1-0.2,1.8-0.5,2.3-1c0.5-0.5,0.7-1.2,0.5-1.6c-0.2-0.6-1.3-1.4-2.2-1.8c-1.7-0.6-4.5-0.9-7.3-0.7
							l-0.6,0c0,0-0.1,0-0.1,0c-0.6,0.2-1.4-0.2-1.5-0.8c-0.1-0.6,0-1.2,0.6-1.3c0.2,0,0.5-0.1,0.7-0.1l0.8-0.1
							c2.4-0.2,5.8-0.1,8.2,0.8c1.1,0.4,3,1.6,3.5,3c0.5,1.3,0.1,2.9-1,4.1c-0.8,0.8-1.9,1.3-3.4,1.6C64.8,67.9,63.9,68,62.9,68z
							 M54.6,61.2L54.6,61.2L54.6,61.2z"/>
					</g>
					<g>
						<path class="st1" d="M81.8,68.2l-0.2,0c-0.9-0.2-1.7-0.8-2.3-1.7c-0.6-1-0.8-2.4-0.4-3.7c0.3-1.2,1-2.1,1.8-2.5l0.4-0.1
							c1.6-0.2,2.2,0.1,3.1,0.7l0.7,0.7c0.3,0.6,0.4,1.2,0.5,1.9c0,1.1-0.3,2.2-1,3.2c-0.2,0.3-0.6,0.8-1.1,1.1
							c-0.6,0.3-1,0.4-1.4,0.4L81.8,68.2z M81.7,62.2c-0.3,0.2-0.5,0.6-0.6,1.1c-0.2,0.7-0.1,1.5,0.2,2l0,0c0.2,0.3,0.4,0.5,0.6,0.6
							c0.2,0,0.4-0.1,0.6-0.2c0,0,0,0,0,0c-0.1,0,0.1-0.3,0.2-0.4c0.3-0.5,0.6-1.2,0.6-2c0-0.2-0.1-0.5-0.2-0.7L83,62.6
							C82.6,62.2,82.5,62.2,81.7,62.2z"/>
					</g>
					<g>
						<path class="st1" d="M80.7,68.4c-1.8,0-3.1-0.6-5.1-1.4l-1-0.4c-0.6-0.3-2.5-1-2.4-2.6c0.1-1.4,1.5-2.5,4.8-3.5
							c0.2-0.1,4.5-1.1,7.2-0.1c1.2,0.5,1.8,0.9,2.3,2.2c0,0,0.1,0.3,0.1,0.3c0,0,0.1,0.3,0.1,0.3c0,0.2,0.1,0.4,0.1,0.6
							c0.1,0.9,0,1.8-0.4,2.5c-0.1,0.2-0.3,0.5-0.5,0.7c-0.9,0.8-1.4,0.9-2.2,1.1l-0.4,0.1C82.3,68.3,81.5,68.4,80.7,68.4z M74.5,64
							c0.1,0,0.4,0.2,1,0.5l1,0.4c2.7,1.2,3.6,1.5,6.4,1l0.4-0.1c0.6-0.1,0.6-0.1,1.1-0.5c0.2-0.5,0.3-0.9,0.2-1.4
							c0-0.1,0-0.2,0-0.3c0-0.1,0-0.1,0-0.1c-0.3-0.8-0.4-0.8-1.1-1.1c-1.7-0.6-4.7-0.1-5.8,0.2C75.4,63.2,74.7,63.8,74.5,64z"/>
					</g>
					<g>
						<path class="st1" d="M64.7,67.5l-0.2,0c-0.9-0.1-1.7-0.8-2.3-1.7c-0.7-1.2-0.9-3.2-0.5-4.8c0.3-1,0.8-1.8,1.5-2.2l0.4-0.2
							l0.5,0.1c0.3,0.1,0.7,0.2,1,0.2c0.8,0.1,1.7,0.3,2.5,0.9l0.4,0.4c0.3,0.6,0.4,1.7,0.4,2.5c0,1.3-0.5,2.5-1,3.2
							c-0.3,0.4-0.6,0.8-1.1,1.1c-0.6,0.3-1,0.4-1.4,0.5L64.7,67.5z M64.2,61c-0.1,0.1-0.2,0.3-0.3,0.6c-0.3,1-0.2,2.4,0.2,3.1h0
							c0.2,0.3,0.4,0.5,0.6,0.6c0.2,0,0.4-0.1,0.6-0.2l0,0c0,0,0.1-0.2,0.3-0.4c0.4-0.6,0.6-1.3,0.6-1.9c0-0.6,0-1-0.1-1.3
							c-0.4-0.2-0.8-0.3-1.3-0.3C64.6,61,64.4,61,64.2,61z"/>
					</g>
				</g>
			</g>
		</g>
	</g>
</g>
</svg>
